<?xml version="1.0" encoding="UTF-8" standalone="no"?>
<!-- Created with Inkscape (http://www.inkscape.org/) -->

<svg
   xmlns:dc="http://purl.org/dc/elements/1.1/"
   xmlns:cc="http://creativecommons.org/ns#"
   xmlns:rdf="http://www.w3.org/1999/02/22-rdf-syntax-ns#"
   xmlns:svg="http://www.w3.org/2000/svg"
   xmlns="http://www.w3.org/2000/svg"
   xmlns:sodipodi="http://sodipodi.sourceforge.net/DTD/sodipodi-0.dtd"
   xmlns:inkscape="http://www.inkscape.org/namespaces/inkscape"
   inkscape:export-ydpi="96"
   inkscape:export-xdpi="96"
   inkscape:export-filename="C:\Users\Julio Lima\Documents\MEGA\Programming\Trader Ox\public\assets\img\logo.png"
   sodipodi:docname="drawing.svg"
   inkscape:version="0.92.4 (5da689c313, 2019-01-14)"
   id="svg8"
   version="1.1"
   viewBox="0 0 210 297"
   height="297mm"
   width="210mm">
  <defs
     id="defs2">
    <clipPath
       clipPathUnits="userSpaceOnUse"
       id="clipPath823">
      <rect
         style="fill:#3d0aa3;fill-opacity:1;stroke:#ffdd00;stroke-width:0.1;stroke-linecap:square;stroke-linejoin:miter;stroke-miterlimit:4;stroke-dasharray:none;stroke-opacity:1;paint-order:markers stroke fill"
         id="rect825"
         width="35.71875"
         height="17.764881"
         x="21.922617"
         y="119.1622" />
    </clipPath>
    <clipPath
       clipPathUnits="userSpaceOnUse"
       id="clipPath865">
      <path
         sodipodi:nodetypes="ccsscccccccccscccccccscccccccccccccccccscccccccccsccccccccccccccccccccccccccsccsccccccccccccccccccczscsccccccsssccccccccccccccccscccccccccccccccccccccccc"
         inkscape:connector-curvature="0"
         id="path867"
         d="m 951.83693,-910.58426 -2.28719,2.00618 c -5.53964,4.8601 -11.24302,6.14061 -33.25516,7.45622 -15.59399,0.932 -24.00552,1.9626 -28.26753,3.46628 -7.66263,2.70362 -11.47533,8.12911 -12.57004,17.8907 -0.60177,5.36562 -1.5671,6.89462 -8.23457,13.04182 -10.22406,9.42615 -14.94894,19.43431 -16.28847,34.49923 -0.86923,9.77527 2.0959,26.47545 7.06189,39.78434 1.21229,3.24903 4.80264,11.35613 7.97941,18.01654 9.98768,20.94026 12.26712,27.72013 13.65877,40.61454 l 0.71718,6.64528 c 4.42542,7.22892 1.6754,10.36336 -5.00081,15.52289 -5.28209,2.69798 -9.21001,6.95889 -7.75975,8.41568 0.33705,0.33819 11.48466,-0.0501 13.1291,-0.0501 7.22331,0 7.93782,-6.7418 18.90834,-23.88984 l 1.27593,-2.51021 c 6.42517,-12.63986 78.43382,-16.66039 92.98376,-14.82132 9.31671,1.17766 15.17461,3.8763 21.00501,9.66888 2.5017,2.48555 5.9529,7.36282 6.7454,9.53354 5.1184,4.78587 14.1301,9.75874 14.4115,17.50957 0,2.00332 -0.5712,3.04853 -2.7204,4.96184 -3.5305,3.14314 -7.0264,8.25119 -7.0264,10.26356 0,1.43272 0.4155,1.60803 4.3097,1.83806 v -0.0185 c 2.3717,0.13943 8.1444,0.32805 12.8286,0.39057 7.8494,0.12441 8.4715,0.0376 7.97,-1.09823 -1.2589,-2.84519 -1.3062,-11.28733 -0.084,-14.65074 2.4125,-6.6398 1.0261,-9.62581 -7.0298,-15.13814 l -4.8749,-3.33735 0.4458,-2.06753 c 0.8842,-4.09054 2.3023,-15.78523 2.72,-22.44569 0.4914,-7.83421 -0.2495,-7.29983 7.773,-5.61811 15.086,3.1623 26.6418,-3.8975 30.5577,-18.6694 0.6446,-2.43139 1.013,-6.18945 1.0401,-10.56711 0.4347,-14.15248 -12.4469,-28.08891 -24.229,-31.34265 -3.5192,-0.91646 -7.8133,-1.35027 -17.3742,-1.75106 -13.3329,-0.55888 -15.5794,-0.91702 -18.0811,-2.88489 -1.8269,-1.43703 -3.0331,-1.66793 -12.5152,-2.39376 -4.3152,-0.3301 -8.01,-0.92575 -9.1007,-1.46987 -1.00975,-0.50387 -1.92897,-0.91752 -2.04144,-0.91752 -0.11248,0 -0.20064,0.99777 -0.19733,2.21612 0.0156,6.10764 6.39117,13.07611 13.33257,14.57291 2.3268,0.50199 6.6102,-0.46186 10.7353,-2.41308 5.791,-2.7396 22.0871,-2.9736 30.8583,-0.44268 10.5329,3.03922 17.2491,10.25229 19.855,21.32479 1.1068,4.70299 0.8301,11.10509 -0.6302,14.55057 -1.3451,3.17357 -5.3376,7.30314 -7.8664,8.13779 -7.2352,2.38781 -18.1901,-1.52543 -26.4163,-9.43639 -8.2658,-7.94909 -9.5801,-8.37507 -7.9858,-2.5813 1.9781,7.18862 2.6286,13.70957 2.649,26.60346 0.023,14.62312 0.038,14.58362 -4.6874,12.06301 -3.8687,-2.06343 -16.7227,-12.01727 -21.0795,-18.18362 -4.7117,-5.42729 -6.8277,-16.622 -8.3669,-17.31563 1.14324,7.92718 -0.99766,9.33466 -7.19151,8.52421 -4.42526,-0.81833 -8.33673,-1.14543 -13.55529,-1.50233 -5.21856,-0.35697 -69.17354,-3.66628 -70.50527,-3.82505 l -2.41985,-0.28768 -1.97715,-7.13296 -1.97379,-7.13298 -1.65058,9.0746 c -2.65327,14.58862 -6.51267,28.45131 -7.5919,27.26915 -0.2368,-0.25943 -0.8854,-2.5989 -1.44108,-5.19809 -1.60467,-7.50538 -4.22315,-14.55181 -9.76585,-26.28701 -5.92857,-12.55228 -8.16269,-17.63324 -10.12476,-23.03698 l -1.39541,-3.84127 -0.32965,5.63739 c -0.46915,7.97624 -1.33929,9.0196 -3.44056,4.13507 -1.82091,-4.23283 -4.0545,-14.12645 -4.80689,-21.2957 -1.09236,-10.40906 0.76385,-22.28739 4.49045,-28.74238 3.56764,-6.17974 6.84684,-8.43375 14.77664,-10.16 2.95457,-0.6432 7.05088,-1.8787 9.1037,-2.7427 2.61776,-1.10172 4.29157,-1.46444 5.60491,-1.21803 1.02989,0.19322 5.17567,2.34 9.2103,4.77165 4.03469,2.43171 8.30511,2.67142 8.69082,2.67198 0.47162,0 0.59391,-0.67395 0.36822,-2.06447 -0.49535,-3.05242 0.008,-0.91019 4.20548,3.39183 4.38814,4.49733 7.36245,8.50384 7.36245,9.92444 0,1.38504 -3.00405,3.48282 -5.58869,3.90221 -3.08676,0.50075 -6.86623,-0.69326 -12.59271,-3.98005 -5.59191,-3.20958 -14.79701,-6.46758 -18.269,-6.46758 h -2.17075 l 1.55038,1.62483 c 2.48465,2.60451 2.88274,4.52382 3.40503,16.4438 0.27186,6.2025 0.67791,12.31752 0.9013,13.58771 0.43154,2.45403 1.9158,5.29468 2.47468,4.7358 0.18409,-0.18381 0.52302,-2.4724 0.75268,-5.08474 0.22969,-2.61223 0.59653,-4.92852 0.81428,-5.1463 0.91546,-0.91543 2.18694,1.71839 3.91541,8.10223 2.12255,7.83921 6.26595,18.0046 8.90641,21.85445 l 1.82216,2.6588 -0.28091,-2.95254 c -0.15497,-1.62454 -0.72316,-5.40049 -1.26,-8.38994 -0.53689,-2.98947 -0.89686,-7.33517 -0.80108,-9.65605 l 0.17428,-4.21899 2.36162,1.91254 c 4.05646,3.28221 57.70049,5.71177 74.32358,11.18341 8.82054,2.90338 16.1441,5.17123 16.2756,5.0397 0.3836,-0.38385 -9.42409,-6.24652 -19.28976,-11.53302 -7.70232,-3.22197 -15.53504,-2.75188 -18.17717,-11.17886 -1.85793,-6.07153 -1.18843,-11.60309 -6.89536,-13.27539 -5.7069,-1.6723 -12.82808,9.24959 -19.70048,11.52337 -11.2246,3.71369 -21.59084,0.15261 -22.89884,-1.29275 -1.83719,-2.03018 -3.34039,-3.87843 -3.34039,-4.10597 0,-0.22754 1.66174,-0.5933 3.69237,-0.81092 4.43566,-0.47572 9.3328,-1.80808 12.41197,-3.37897 5.05862,-2.58069 10.38897,-9.1368 9.66587,-11.89177 -0.19048,-0.72581 -3.02112,-4.49141 -6.28992,-8.36727 l -5.94436,-7.04564 4.4129,-1.612 c 10.91298,-3.97867 17.18646,-8.93347 21.03104,-16.61477 2.17578,-4.347 2.83605,-6.37421 2.07735,-6.37421 -0.16171,0 -1.55744,0.89061 -3.10147,1.9772 -10.5138,7.39931 -22.83568,10.4966 -38.25293,9.6175 -8.09617,-0.46159 -10.44765,-1.1053 -12.3666,-3.38579 -5.57395,-6.6243 4.45852,-12.87701 20.73355,-12.92199 10.82773,-0.03 22.18557,-4.17221 27.76667,-10.1278 2.0642,-2.20271 4.03301,-5.76741 4.69416,-8.4932 z m -48.29241,44.94649 c 0.24926,-0.033 4.94792,2.56389 6.86969,4.51893 1.92175,1.95503 0.059,4.19137 -0.0135,4.63595 0,0 1.09892,-1.4463 -0.57531,-3.61794 -1.92178,-1.95501 -6.28108,-5.53694 -6.28108,-5.53694 z m -36.94245,100.61567 c -0.65712,-0.0188 -0.60923,5.03479 -0.7493,19.98763 l -0.1682,17.87134 -4.42243,5.57919 c -3.25982,4.10982 -5.81348,6.64088 -9.68851,9.61104 -5.5589,4.26101 -7.4562,6.36929 -7.4562,8.28635 0,1.15605 0.0904,1.1684 7.09438,0.98523 8.36335,-0.21881 9.37263,-0.65632 11.25215,-4.87831 0.68006,-1.52778 2.30396,-3.97573 3.61148,-5.44345 6.604,-12.06024 10.06877,-13.63205 10.52854,-14.58238 -0.007,-0.24382 -0.3959,-3.31237 -0.86267,-6.81959 -1.09498,-8.22666 -3.89028,-18.65884 -7.00064,-26.11575 -1.09683,-2.62956 -1.74435,-4.46833 -2.1386,-4.48095 z m 144.13603,31.28849 c -0.055,-0.003 -0.099,0.0127 -0.129,0.0501 -0.1263,0.14004 -0.3561,2.3146 -0.5107,4.83258 -0.4508,2.73077 -0.014,4.53851 0.528,7.1773 0.1048,0.92991 0.1709,2.13876 0.1668,3.28017 -0.022,5.7621 -1.6318,7.56365 -7.847,8.78695 -2.5747,0.50636 -4.94109,3.10597 -5.65674,6.20596 -0.51562,2.23615 -0.5084,2.87925 0.0356,3.22435 2.82664,1.78665 17.07994,-2.82951 19.32834,-6.26084 0.7979,-1.21777 0.8682,-2.27134 0.5527,-8.15099 -0.2354,-4.38523 -0.1638,-7.26501 0.2068,-8.21833 l 0.5716,-1.4668 -1.5799,-2.90078 c -1.415,-2.59991 -4.8451,-6.5201 -5.6661,-6.55831 z"
         style="fill:#ff0000;fill-opacity:0.9447514;stroke:none;stroke-width:0.2250541;stroke-linecap:square;stroke-linejoin:miter;stroke-miterlimit:4;stroke-dasharray:none;stroke-opacity:1;paint-order:markers stroke fill"
         inkscape:export-xdpi="96"
         inkscape:export-ydpi="96" />
    </clipPath>
    <clipPath
       clipPathUnits="userSpaceOnUse"
       id="clipPath890">
      <path
         style="fill:#ff0000;fill-opacity:0.97647059;stroke:none;stroke-width:0.11163396;stroke-linecap:square;stroke-linejoin:miter;stroke-miterlimit:4;stroke-dasharray:none;stroke-opacity:1;paint-order:markers stroke fill"
         d="m 68.857095,-990.6032 -2.028621,-0.75372 c -3.649689,-1.25799 -7.898738,-3.36129 -12.242059,-6.0601 -7.441099,-4.62358 -9.528299,-6.61928 -12.86311,-12.30028 -3.12528,-5.3239 -9.846165,-21.2943 -10.019525,-21.2818 -0.167661,6.3339 2.356911,19.3392 -8.66779,16.8483 -6.64137,-1.5051 -69.38232,-1.2976 -78.416639,-5.2303 -3.488881,-1.8195 -7.142401,-8.838 -7.435541,-14.5698 -2.299779,2.3844 -2.569461,8.9876 -4.035221,13.9231 -1.07918,3.6338 -2.187141,5.6121 -3.29946,5.8915 -0.93363,0.2343 -2.266979,-0.6394 -4.430519,-2.9031 -3.327461,-3.4817 -5.73568,-7.6559 -8.939562,-15.4945 -2.852878,-6.9387 -7.66168,-15.9509 -12.355449,-23.5077 -0.0021,0.2974 -0.286689,7.0567 -0.525939,11.4372 -0.10197,1.8675 -0.660551,3.598 -1.319911,5.0739 0.161589,0.2794 0.323199,0.5605 0.466371,0.7334 0.0961,0.1161 0.188198,0.2079 0.276508,0.2755 0.0883,0.068 0.17291,0.1107 0.25382,0.1293 0.0809,0.019 0.158242,0.013 0.232172,-0.018 0.0643,-0.027 0.124859,-0.081 0.18411,-0.1455 0.111199,-0.211 0.219189,-0.4258 0.321188,-0.6519 0.0232,-0.065 0.0518,-0.085 0.0741,-0.159 0.110839,-0.3648 0.210349,-0.832 0.300538,-1.4035 0.0902,-0.5716 0.170881,-1.2477 0.243681,-2.03 0.0728,-0.7823 0.137649,-1.6709 0.196289,-2.6679 l 0.32998,-5.6374 1.395051,3.8413 c 0.490529,1.3509 0.998119,2.6817 1.57612,4.114 0.578001,1.4324 1.22673,2.9663 1.99917,4.7237 0.77243,1.7573 1.668571,3.7382 2.74238,6.0641 1.073809,2.326 2.324971,4.9971 3.807111,8.1351 1.385678,2.9338 2.588919,5.5747 3.63892,8.0028 0.524989,1.2141 1.011479,2.3749 1.463749,3.4927 0.452271,1.1178 0.8703,2.1925 1.257311,3.2341 0.387009,1.0417 0.742968,2.0502 1.072179,3.0358 0.32921,0.9857 0.631531,1.9484 0.910399,2.8981 0.278871,0.9497 0.534292,1.8863 0.77029,2.8202 0.236,0.93393 0.452612,1.86521 0.65319,2.80329 0.277841,1.29961 0.5788,2.53431 0.840012,3.47649 0.130599,0.47112 0.25122,0.86921 0.35401,1.1656 0.102788,0.29641 0.18786,0.4912 0.24706,0.55602 0.0337,0.037 0.0703,0.059 0.109318,0.067 0.039,0.0101 0.0804,0 0.124542,-0.018 0.0882,-0.04 0.186428,-0.13541 0.293428,-0.2826 0.107,-0.14721 0.222711,-0.34631 0.346562,-0.59362 0.123859,-0.24728 0.255868,-0.54258 0.394629,-0.88299 0.277511,-0.68059 0.582901,-1.54051 0.90837,-2.55151 0.325469,-1.011 0.670999,-2.17305 1.028861,-3.45848 0.357849,-1.2854 0.72798,-2.6942 1.102638,-4.198 0.374661,-1.5038 0.753811,-3.1026 1.12971,-4.769 0.375902,-1.6663 0.748522,-3.4001 1.110091,-5.173 0.361561,-1.773 0.712092,-3.5851 1.043742,-5.4087 l 1.650579,-9.0746 1.973779,7.133 1.97717,7.133 2.41985,0.2877 c 0.665872,0.079 16.987441,0.9462 33.794968,1.838 16.807529,0.8918 34.101003,1.8085 36.710293,1.987 2.60928,0.1785 4.89176,0.3494 7.0751,0.5781 1.09167,0.1143 2.15851,0.2429 3.22906,0.3942 1.07054,0.1514 2.14474,0.3255 3.251059,0.53 0.774231,0.1013 1.485122,0.168 2.1342,0.1916 0.649081,0.024 1.236351,0 1.763282,-0.067 0.263458,-0.035 0.511749,-0.084 0.745238,-0.1459 0.23349,-0.062 0.45235,-0.1383 0.656241,-0.2294 0.203891,-0.091 0.39289,-0.1974 0.56756,-0.3195 0.17467,-0.1221 0.334759,-0.2601 0.48059,-0.4153 0.145819,-0.1552 0.27727,-0.3274 0.394615,-0.5178 0.11734,-0.1904 0.22076,-0.3988 0.31001,-0.6265 0.0892,-0.2276 0.164549,-0.4745 0.226081,-0.7415 0.0615,-0.267 0.109318,-0.5542 0.143499,-0.8627 0.0684,-0.617 0.0824,-1.3193 0.0437,-2.1149 -0.0388,-0.7955 -0.130559,-1.6845 -0.27346,-2.6753 0.0962,0.043 0.194601,0.1276 0.295801,0.249 0.10119,0.1215 0.2052,0.28 0.312381,0.4715 0.21436,0.3831 0.441798,0.8986 0.686019,1.5145 0.488439,1.2319 1.044459,2.8659 1.699649,4.6478 0.327591,0.891 0.6799,1.8187 1.061011,2.7519 0.381101,0.9331 0.791109,1.8715 1.233609,2.7833 0.442511,0.9118 0.91744,1.7971 1.429242,2.6239 0.255889,0.4135 0.52097,0.8121 0.795669,1.1924 0.274701,0.3803 0.559059,0.7421 0.85354,1.0813 0.272301,0.3854 0.577689,0.78561 0.912101,1.19773 0.33442,0.41219 0.698058,0.83624 1.086059,1.26947 0.77598,0.86637 1.650309,1.76887 2.5894,2.68517 0.939099,0.91631 1.94269,1.84621 2.976589,2.7667 1.033902,0.92062 2.098241,1.832 3.158662,2.71132 1.060418,0.87929 2.117,1.72659 3.135659,2.51899 1.018641,0.7924 1.99929,1.5299 2.90788,2.18969 0.908579,0.6599 1.74512,1.24201 2.475351,1.72371 0.730219,0.4817 1.354148,0.86299 1.83773,1.1209 0.590709,0.3151 1.10739,0.5914 1.55919,0.80521 0.451799,0.21368 0.838938,0.36489 1.170328,0.42979 0.16569,0.032 0.3175,0.043 0.45656,0.029 0.139052,-0.014 0.26534,-0.052 0.380061,-0.11779 0.114731,-0.066 0.217641,-0.15939 0.310351,-0.28329 0.0927,-0.12391 0.17508,-0.27811 0.248078,-0.46601 0.073,-0.18791 0.136631,-0.40929 0.192241,-0.6671 0.0556,-0.25781 0.103299,-0.552 0.14383,-0.88569 0.0811,-0.66741 0.1343,-1.49273 0.168879,-2.49941 0.0388,-1.12972 0.0275,-3.09751 0.0325,-4.71821 z"
         id="path892"
         inkscape:connector-curvature="0"
         inkscape:export-xdpi="96"
         inkscape:export-ydpi="96" />
    </clipPath>
    <clipPath
       clipPathUnits="userSpaceOnUse"
       id="clipPath865-3">
      <path
         sodipodi:nodetypes="ccsscccccccccscccccccscccccccccccccccccscccccccccsccccccccccccccccccccccccccsccsccccccccccccccccccczscsccccccsssccccccccccccccccscccccccccccccccccccccccc"
         inkscape:connector-curvature="0"
         id="path867-5"
         d="m 951.83693,-910.58426 -2.28719,2.00618 c -5.53964,4.8601 -11.24302,6.14061 -33.25516,7.45622 -15.59399,0.932 -24.00552,1.9626 -28.26753,3.46628 -7.66263,2.70362 -11.47533,8.12911 -12.57004,17.8907 -0.60177,5.36562 -1.5671,6.89462 -8.23457,13.04182 -10.22406,9.42615 -14.94894,19.43431 -16.28847,34.49923 -0.86923,9.77527 2.0959,26.47545 7.06189,39.78434 1.21229,3.24903 4.80264,11.35613 7.97941,18.01654 9.98768,20.94026 12.26712,27.72013 13.65877,40.61454 l 0.71718,6.64528 c 4.42542,7.22892 1.6754,10.36336 -5.00081,15.52289 -5.28209,2.69798 -9.21001,6.95889 -7.75975,8.41568 0.33705,0.33819 11.48466,-0.0501 13.1291,-0.0501 7.22331,0 7.93782,-6.7418 18.90834,-23.88984 l 1.27593,-2.51021 c 6.42517,-12.63986 78.43382,-16.66039 92.98376,-14.82132 9.31671,1.17766 15.17461,3.8763 21.00501,9.66888 2.5017,2.48555 5.9529,7.36282 6.7454,9.53354 5.1184,4.78587 14.1301,9.75874 14.4115,17.50957 0,2.00332 -0.5712,3.04853 -2.7204,4.96184 -3.5305,3.14314 -7.0264,8.25119 -7.0264,10.26356 0,1.43272 0.4155,1.60803 4.3097,1.83806 v -0.0185 c 2.3717,0.13943 8.1444,0.32805 12.8286,0.39057 7.8494,0.12441 8.4715,0.0376 7.97,-1.09823 -1.2589,-2.84519 -1.3062,-11.28733 -0.084,-14.65074 2.4125,-6.6398 1.0261,-9.62581 -7.0298,-15.13814 l -4.8749,-3.33735 0.4458,-2.06753 c 0.8842,-4.09054 2.3023,-15.78523 2.72,-22.44569 0.4914,-7.83421 -0.2495,-7.29983 7.773,-5.61811 15.086,3.1623 26.6418,-3.8975 30.5577,-18.6694 0.6446,-2.43139 1.013,-6.18945 1.0401,-10.56711 0.4347,-14.15248 -12.4469,-28.08891 -24.229,-31.34265 -3.5192,-0.91646 -7.8133,-1.35027 -17.3742,-1.75106 -13.3329,-0.55888 -15.5794,-0.91702 -18.0811,-2.88489 -1.8269,-1.43703 -3.0331,-1.66793 -12.5152,-2.39376 -4.3152,-0.3301 -8.01,-0.92575 -9.1007,-1.46987 -1.00975,-0.50387 -1.92897,-0.91752 -2.04144,-0.91752 -0.11248,0 -0.20064,0.99777 -0.19733,2.21612 0.0156,6.10764 6.39117,13.07611 13.33257,14.57291 2.3268,0.50199 6.6102,-0.46186 10.7353,-2.41308 5.791,-2.7396 22.0871,-2.9736 30.8583,-0.44268 10.5329,3.03922 17.2491,10.25229 19.855,21.32479 1.1068,4.70299 0.8301,11.10509 -0.6302,14.55057 -1.3451,3.17357 -5.3376,7.30314 -7.8664,8.13779 -7.2352,2.38781 -18.1901,-1.52543 -26.4163,-9.43639 -8.2658,-7.94909 -9.5801,-8.37507 -7.9858,-2.5813 1.9781,7.18862 2.6286,13.70957 2.649,26.60346 0.023,14.62312 0.038,14.58362 -4.6874,12.06301 -3.8687,-2.06343 -16.7227,-12.01727 -21.0795,-18.18362 -4.7117,-5.42729 -6.8277,-16.622 -8.3669,-17.31563 1.14324,7.92718 -0.99766,9.33466 -7.19151,8.52421 -4.42526,-0.81833 -8.33673,-1.14543 -13.55529,-1.50233 -5.21856,-0.35697 -69.17354,-3.66628 -70.50527,-3.82505 l -2.41985,-0.28768 -1.97715,-7.13296 -1.97379,-7.13298 -1.65058,9.0746 c -2.65327,14.58862 -6.51267,28.45131 -7.5919,27.26915 -0.2368,-0.25943 -0.8854,-2.5989 -1.44108,-5.19809 -1.60467,-7.50538 -4.22315,-14.55181 -9.76585,-26.28701 -5.92857,-12.55228 -8.16269,-17.63324 -10.12476,-23.03698 l -1.39541,-3.84127 -0.32965,5.63739 c -0.46915,7.97624 -1.33929,9.0196 -3.44056,4.13507 -1.82091,-4.23283 -4.0545,-14.12645 -4.80689,-21.2957 -1.09236,-10.40906 0.76385,-22.28739 4.49045,-28.74238 3.56764,-6.17974 6.84684,-8.43375 14.77664,-10.16 2.95457,-0.6432 7.05088,-1.8787 9.1037,-2.7427 2.61776,-1.10172 4.29157,-1.46444 5.60491,-1.21803 1.02989,0.19322 5.17567,2.34 9.2103,4.77165 4.03469,2.43171 8.30511,2.67142 8.69082,2.67198 0.47162,0 0.59391,-0.67395 0.36822,-2.06447 -0.49535,-3.05242 0.008,-0.91019 4.20548,3.39183 4.38814,4.49733 7.36245,8.50384 7.36245,9.92444 0,1.38504 -3.00405,3.48282 -5.58869,3.90221 -3.08676,0.50075 -6.86623,-0.69326 -12.59271,-3.98005 -5.59191,-3.20958 -14.79701,-6.46758 -18.269,-6.46758 h -2.17075 l 1.55038,1.62483 c 2.48465,2.60451 2.88274,4.52382 3.40503,16.4438 0.27186,6.2025 0.67791,12.31752 0.9013,13.58771 0.43154,2.45403 1.9158,5.29468 2.47468,4.7358 0.18409,-0.18381 0.52302,-2.4724 0.75268,-5.08474 0.22969,-2.61223 0.59653,-4.92852 0.81428,-5.1463 0.91546,-0.91543 2.18694,1.71839 3.91541,8.10223 2.12255,7.83921 6.26595,18.0046 8.90641,21.85445 l 1.82216,2.6588 -0.28091,-2.95254 c -0.15497,-1.62454 -0.72316,-5.40049 -1.26,-8.38994 -0.53689,-2.98947 -0.89686,-7.33517 -0.80108,-9.65605 l 0.17428,-4.21899 2.36162,1.91254 c 4.05646,3.28221 57.70049,5.71177 74.32358,11.18341 8.82054,2.90338 16.1441,5.17123 16.2756,5.0397 0.3836,-0.38385 -9.42409,-6.24652 -19.28976,-11.53302 -7.70232,-3.22197 -15.53504,-2.75188 -18.17717,-11.17886 -1.85793,-6.07153 -1.18843,-11.60309 -6.89536,-13.27539 -5.7069,-1.6723 -12.82808,9.24959 -19.70048,11.52337 -11.2246,3.71369 -21.59084,0.15261 -22.89884,-1.29275 -1.83719,-2.03018 -3.34039,-3.87843 -3.34039,-4.10597 0,-0.22754 1.66174,-0.5933 3.69237,-0.81092 4.43566,-0.47572 9.3328,-1.80808 12.41197,-3.37897 5.05862,-2.58069 10.38897,-9.1368 9.66587,-11.89177 -0.19048,-0.72581 -3.02112,-4.49141 -6.28992,-8.36727 l -5.94436,-7.04564 4.4129,-1.612 c 10.91298,-3.97867 17.18646,-8.93347 21.03104,-16.61477 2.17578,-4.347 2.83605,-6.37421 2.07735,-6.37421 -0.16171,0 -1.55744,0.89061 -3.10147,1.9772 -10.5138,7.39931 -22.83568,10.4966 -38.25293,9.6175 -8.09617,-0.46159 -10.44765,-1.1053 -12.3666,-3.38579 -5.57395,-6.6243 4.45852,-12.87701 20.73355,-12.92199 10.82773,-0.03 22.18557,-4.17221 27.76667,-10.1278 2.0642,-2.20271 4.03301,-5.76741 4.69416,-8.4932 z m -48.29241,44.94649 c 0.24926,-0.033 4.94792,2.56389 6.86969,4.51893 1.92175,1.95503 0.059,4.19137 -0.0135,4.63595 0,0 1.09892,-1.4463 -0.57531,-3.61794 -1.92178,-1.95501 -6.28108,-5.53694 -6.28108,-5.53694 z m -36.94245,100.61567 c -0.65712,-0.0188 -0.60923,5.03479 -0.7493,19.98763 l -0.1682,17.87134 -4.42243,5.57919 c -3.25982,4.10982 -5.81348,6.64088 -9.68851,9.61104 -5.5589,4.26101 -7.4562,6.36929 -7.4562,8.28635 0,1.15605 0.0904,1.1684 7.09438,0.98523 8.36335,-0.21881 9.37263,-0.65632 11.25215,-4.87831 0.68006,-1.52778 2.30396,-3.97573 3.61148,-5.44345 6.604,-12.06024 10.06877,-13.63205 10.52854,-14.58238 -0.007,-0.24382 -0.3959,-3.31237 -0.86267,-6.81959 -1.09498,-8.22666 -3.89028,-18.65884 -7.00064,-26.11575 -1.09683,-2.62956 -1.74435,-4.46833 -2.1386,-4.48095 z m 144.13603,31.28849 c -0.055,-0.003 -0.099,0.0127 -0.129,0.0501 -0.1263,0.14004 -0.3561,2.3146 -0.5107,4.83258 -0.4508,2.73077 -0.014,4.53851 0.528,7.1773 0.1048,0.92991 0.1709,2.13876 0.1668,3.28017 -0.022,5.7621 -1.6318,7.56365 -7.847,8.78695 -2.5747,0.50636 -4.94109,3.10597 -5.65674,6.20596 -0.51562,2.23615 -0.5084,2.87925 0.0356,3.22435 2.82664,1.78665 17.07994,-2.82951 19.32834,-6.26084 0.7979,-1.21777 0.8682,-2.27134 0.5527,-8.15099 -0.2354,-4.38523 -0.1638,-7.26501 0.2068,-8.21833 l 0.5716,-1.4668 -1.5799,-2.90078 c -1.415,-2.59991 -4.8451,-6.5201 -5.6661,-6.55831 z"
         style="fill:#ff0000;fill-opacity:0.9447514;stroke:none;stroke-width:0.2250541;stroke-linecap:square;stroke-linejoin:miter;stroke-miterlimit:4;stroke-dasharray:none;stroke-opacity:1;paint-order:markers stroke fill"
         inkscape:export-xdpi="96"
         inkscape:export-ydpi="96" />
    </clipPath>
    <clipPath
       clipPathUnits="userSpaceOnUse"
       id="clipPath890-2">
      <path
         style="fill:#ff0000;fill-opacity:0.97647059;stroke:none;stroke-width:0.11163396;stroke-linecap:square;stroke-linejoin:miter;stroke-miterlimit:4;stroke-dasharray:none;stroke-opacity:1;paint-order:markers stroke fill"
         d="m 68.857095,-990.6032 -2.028621,-0.75372 c -3.649689,-1.25799 -7.898738,-3.36129 -12.242059,-6.0601 -7.441099,-4.62358 -9.528299,-6.61928 -12.86311,-12.30028 -3.12528,-5.3239 -9.846165,-21.2943 -10.019525,-21.2818 -0.167661,6.3339 2.356911,19.3392 -8.66779,16.8483 -6.64137,-1.5051 -69.38232,-1.2976 -78.416639,-5.2303 -3.488881,-1.8195 -7.142401,-8.838 -7.435541,-14.5698 -2.299779,2.3844 -2.569461,8.9876 -4.035221,13.9231 -1.07918,3.6338 -2.187141,5.6121 -3.29946,5.8915 -0.93363,0.2343 -2.266979,-0.6394 -4.430519,-2.9031 -3.327461,-3.4817 -5.73568,-7.6559 -8.939562,-15.4945 -2.852878,-6.9387 -7.66168,-15.9509 -12.355449,-23.5077 -0.0021,0.2974 -0.286689,7.0567 -0.525939,11.4372 -0.10197,1.8675 -0.660551,3.598 -1.319911,5.0739 0.161589,0.2794 0.323199,0.5605 0.466371,0.7334 0.0961,0.1161 0.188198,0.2079 0.276508,0.2755 0.0883,0.068 0.17291,0.1107 0.25382,0.1293 0.0809,0.019 0.158242,0.013 0.232172,-0.018 0.0643,-0.027 0.124859,-0.081 0.18411,-0.1455 0.111199,-0.211 0.219189,-0.4258 0.321188,-0.6519 0.0232,-0.065 0.0518,-0.085 0.0741,-0.159 0.110839,-0.3648 0.210349,-0.832 0.300538,-1.4035 0.0902,-0.5716 0.170881,-1.2477 0.243681,-2.03 0.0728,-0.7823 0.137649,-1.6709 0.196289,-2.6679 l 0.32998,-5.6374 1.395051,3.8413 c 0.490529,1.3509 0.998119,2.6817 1.57612,4.114 0.578001,1.4324 1.22673,2.9663 1.99917,4.7237 0.77243,1.7573 1.668571,3.7382 2.74238,6.0641 1.073809,2.326 2.324971,4.9971 3.807111,8.1351 1.385678,2.9338 2.588919,5.5747 3.63892,8.0028 0.524989,1.2141 1.011479,2.3749 1.463749,3.4927 0.452271,1.1178 0.8703,2.1925 1.257311,3.2341 0.387009,1.0417 0.742968,2.0502 1.072179,3.0358 0.32921,0.9857 0.631531,1.9484 0.910399,2.8981 0.278871,0.9497 0.534292,1.8863 0.77029,2.8202 0.236,0.93393 0.452612,1.86521 0.65319,2.80329 0.277841,1.29961 0.5788,2.53431 0.840012,3.47649 0.130599,0.47112 0.25122,0.86921 0.35401,1.1656 0.102788,0.29641 0.18786,0.4912 0.24706,0.55602 0.0337,0.037 0.0703,0.059 0.109318,0.067 0.039,0.0101 0.0804,0 0.124542,-0.018 0.0882,-0.04 0.186428,-0.13541 0.293428,-0.2826 0.107,-0.14721 0.222711,-0.34631 0.346562,-0.59362 0.123859,-0.24728 0.255868,-0.54258 0.394629,-0.88299 0.277511,-0.68059 0.582901,-1.54051 0.90837,-2.55151 0.325469,-1.011 0.670999,-2.17305 1.028861,-3.45848 0.357849,-1.2854 0.72798,-2.6942 1.102638,-4.198 0.374661,-1.5038 0.753811,-3.1026 1.12971,-4.769 0.375902,-1.6663 0.748522,-3.4001 1.110091,-5.173 0.361561,-1.773 0.712092,-3.5851 1.043742,-5.4087 l 1.650579,-9.0746 1.973779,7.133 1.97717,7.133 2.41985,0.2877 c 0.665872,0.079 16.987441,0.9462 33.794968,1.838 16.807529,0.8918 34.101003,1.8085 36.710293,1.987 2.60928,0.1785 4.89176,0.3494 7.0751,0.5781 1.09167,0.1143 2.15851,0.2429 3.22906,0.3942 1.07054,0.1514 2.14474,0.3255 3.251059,0.53 0.774231,0.1013 1.485122,0.168 2.1342,0.1916 0.649081,0.024 1.236351,0 1.763282,-0.067 0.263458,-0.035 0.511749,-0.084 0.745238,-0.1459 0.23349,-0.062 0.45235,-0.1383 0.656241,-0.2294 0.203891,-0.091 0.39289,-0.1974 0.56756,-0.3195 0.17467,-0.1221 0.334759,-0.2601 0.48059,-0.4153 0.145819,-0.1552 0.27727,-0.3274 0.394615,-0.5178 0.11734,-0.1904 0.22076,-0.3988 0.31001,-0.6265 0.0892,-0.2276 0.164549,-0.4745 0.226081,-0.7415 0.0615,-0.267 0.109318,-0.5542 0.143499,-0.8627 0.0684,-0.617 0.0824,-1.3193 0.0437,-2.1149 -0.0388,-0.7955 -0.130559,-1.6845 -0.27346,-2.6753 0.0962,0.043 0.194601,0.1276 0.295801,0.249 0.10119,0.1215 0.2052,0.28 0.312381,0.4715 0.21436,0.3831 0.441798,0.8986 0.686019,1.5145 0.488439,1.2319 1.044459,2.8659 1.699649,4.6478 0.327591,0.891 0.6799,1.8187 1.061011,2.7519 0.381101,0.9331 0.791109,1.8715 1.233609,2.7833 0.442511,0.9118 0.91744,1.7971 1.429242,2.6239 0.255889,0.4135 0.52097,0.8121 0.795669,1.1924 0.274701,0.3803 0.559059,0.7421 0.85354,1.0813 0.272301,0.3854 0.577689,0.78561 0.912101,1.19773 0.33442,0.41219 0.698058,0.83624 1.086059,1.26947 0.77598,0.86637 1.650309,1.76887 2.5894,2.68517 0.939099,0.91631 1.94269,1.84621 2.976589,2.7667 1.033902,0.92062 2.098241,1.832 3.158662,2.71132 1.060418,0.87929 2.117,1.72659 3.135659,2.51899 1.018641,0.7924 1.99929,1.5299 2.90788,2.18969 0.908579,0.6599 1.74512,1.24201 2.475351,1.72371 0.730219,0.4817 1.354148,0.86299 1.83773,1.1209 0.590709,0.3151 1.10739,0.5914 1.55919,0.80521 0.451799,0.21368 0.838938,0.36489 1.170328,0.42979 0.16569,0.032 0.3175,0.043 0.45656,0.029 0.139052,-0.014 0.26534,-0.052 0.380061,-0.11779 0.114731,-0.066 0.217641,-0.15939 0.310351,-0.28329 0.0927,-0.12391 0.17508,-0.27811 0.248078,-0.46601 0.073,-0.18791 0.136631,-0.40929 0.192241,-0.6671 0.0556,-0.25781 0.103299,-0.552 0.14383,-0.88569 0.0811,-0.66741 0.1343,-1.49273 0.168879,-2.49941 0.0388,-1.12972 0.0275,-3.09751 0.0325,-4.71821 z"
         id="path892-3"
         inkscape:connector-curvature="0"
         inkscape:export-xdpi="96"
         inkscape:export-ydpi="96" />
    </clipPath>
    <clipPath
       clipPathUnits="userSpaceOnUse"
       id="clipPath1008">
      <path
         inkscape:export-ydpi="96"
         inkscape:export-xdpi="96"
         style="fill:#ff0000;fill-opacity:0.9447514;stroke:none;stroke-width:0.2250541;stroke-linecap:square;stroke-linejoin:miter;stroke-miterlimit:4;stroke-dasharray:none;stroke-opacity:1;paint-order:markers stroke fill"
         d="m -1801.8848,787.65584 2.3477,-1.93494 c 5.6865,-4.68755 11.4264,-5.79217 33.4687,-6.43066 15.6152,-0.4523 24.0544,-1.22391 28.3607,-2.59589 7.742,-2.46685 11.7197,-7.7726 13.1138,-17.49594 0.7665,-5.34458 1.7783,-6.84319 8.6316,-12.78257 10.5089,-9.10748 15.5392,-18.96573 17.341,-33.98234 1.1693,-9.74394 -1.2812,-26.52736 -5.8358,-39.98258 -1.1119,-3.28475 -4.4513,-11.49837 -7.4219,-18.25329 -9.3395,-21.2373 -11.4094,-28.08402 -12.4042,-41.01511 l -0.5126,-6.66418 c -4.2012,-7.36151 -1.3561,-10.40995 5.4755,-15.36187 5.3625,-2.53437 9.4196,-6.67254 8.0148,-8.17322 -0.3266,-0.34839 -11.4808,-0.3029 -13.1245,-0.35344 -7.2199,-0.22199 -8.1412,6.49466 -19.6335,23.29744 l -1.3526,2.46981 c -6.8105,12.43642 -78.9087,14.242 -93.3953,11.95663 -9.2761,-1.46343 -15.0483,-4.34083 -20.6979,-10.30986 -2.4241,-2.56126 -5.7238,-7.54227 -6.4492,-9.73632 -4.9689,-4.94094 -13.8235,-10.18842 -13.8666,-17.94421 0.062,-2.0024 0.6646,-3.02956 2.8716,-4.87592 3.6255,-3.03313 7.2767,-8.03135 7.3386,-10.04276 0.044,-1.43204 -0.3659,-1.62004 -4.2512,-1.96965 l -6e-4,0.0185 c -2.3663,-0.21226 -8.1305,-0.57821 -12.8105,-0.78466 -7.8419,-0.36559 -8.4664,-0.29794 -8,0.85277 1.1708,2.88254 0.9587,11.32215 -0.3663,14.64641 -2.6154,6.56251 -1.3215,9.58972 6.5612,15.34703 l 4.7701,3.48559 -0.5092,2.05286 c -1.0095,4.06143 -2.7863,15.70701 -3.4085,22.35149 -0.732,7.8154 0.025,7.30405 -7.942,5.37657 -14.9817,-3.62445 -26.749,3.07687 -31.1171,17.72144 -0.719,2.41043 -1.2027,6.15539 -1.3643,10.53016 -0.8695,14.13243 11.5777,28.45817 23.2543,32.07247 3.4893,1.02419 7.7681,1.58977 17.3122,2.28421 13.3094,0.96837 15.5438,1.39539 17.9838,3.43921 1.7819,1.4925 2.9805,1.76036 12.4358,2.77726 4.303,0.46256 7.9777,1.17149 9.0512,1.74887 0.9937,0.53466 1.8998,0.97637 2.0122,0.97983 0.1125,0.003 0.2312,-0.99114 0.2653,-2.20902 0.1716,-6.10525 -5.9862,-13.26634 -12.8783,-14.97577 -2.3103,-0.57327 -6.6213,0.25849 -10.8044,2.08201 -5.8724,2.56033 -22.168,2.29339 -30.8573,-0.50591 -10.4345,-3.36149 -16.9259,-10.77756 -19.1902,-21.92491 -0.9618,-4.73479 -0.4885,-11.12536 1.077,-14.52434 1.442,-3.13073 5.5596,-7.13564 8.1128,-7.89218 7.3052,-2.16433 18.1347,2.08374 26.1138,10.24379 8.0176,8.19936 9.3182,8.66554 7.9027,2.82551 -1.7562,-7.24602 -2.206,-13.78388 -1.8301,-26.6723 0.4264,-14.61693 0.4102,-14.57791 5.0559,-11.91326 3.8035,2.18135 16.3455,12.52553 20.5107,18.82287 4.5427,5.56953 6.3136,16.82398 7.8308,17.56459 -0.8991,-7.95857 1.284,-9.29959 7.4501,-8.29917 4.3979,0.95395 8.2975,1.40111 13.5027,1.91822 5.2051,0.51719 69.0281,5.79047 70.3543,5.9901 l 2.41,0.36192 1.7569,7.19034 1.7536,7.19028 1.9288,-9.01959 c 3.1004,-14.50018 7.384,-28.23771 8.4263,-27.02294 0.2288,0.26658 0.8052,2.62488 1.2807,5.23992 1.3733,7.55115 3.7739,14.67473 8.9533,26.57473 5.54,12.72856 7.6169,17.87577 9.412,23.33726 l 1.2767,3.88235 0.5028,-5.6246 c 0.714,-7.95805 1.6158,-8.97418 3.566,-4.02738 1.6899,4.28679 3.6184,14.24438 4.1501,21.43338 0.772,10.4377 -1.4484,22.25338 -5.3716,28.59079 -3.7559,6.06717 -7.1029,8.21934 -15.082,9.70106 -2.9729,0.5521 -7.1053,1.66112 -9.1837,2.46162 -2.6503,1.02076 -4.3346,1.33186 -5.6396,1.0452 -1.0235,-0.22478 -5.1014,-2.49796 -9.0594,-5.05246 -3.958,-2.55455 -8.219,-2.9254 -8.6045,-2.93781 -0.4714,-0.0145 -0.6144,0.65538 -0.4315,2.05218 0.4013,3.0662 -0.038,0.90945 -4.0993,-3.51947 -4.2479,-4.63008 -7.0976,-8.7261 -7.054,-10.14603 0.043,-1.38439 3.1097,-3.38885 5.706,-3.72861 3.1007,-0.40564 6.8417,0.90396 12.4644,4.36518 5.4906,3.37993 14.5913,6.91929 18.0616,7.026 l 2.1698,0.0667 -1.4997,-1.67171 c -2.4034,-2.67964 -2.7423,-4.61028 -2.898,-16.54068 -0.081,-6.20792 -0.2991,-12.33254 -0.4833,-13.60899 -0.356,-2.46614 -1.7522,-5.35106 -2.328,-4.80962 -0.1897,0.17806 -0.5988,2.45516 -0.9086,5.0592 -0.3099,2.60394 -0.7477,4.90787 -0.9721,5.11885 -0.9431,0.88686 -2.133,-1.78479 -3.6646,-8.21874 -1.8805,-7.90073 -5.7095,-18.18867 -8.2305,-22.11785 l -1.7395,-2.71354 0.19,2.95978 c 0.1049,1.62853 0.5568,5.42016 1.0016,8.4247 0.4446,3.00456 0.6709,7.35927 0.5038,9.6761 l -0.3037,4.21165 -2.3018,-1.98422 c -3.9537,-3.40533 -57.4977,-7.48239 -73.9448,-13.46233 -8.7272,-3.17309 -15.9775,-5.66494 -16.113,-5.53752 -0.3952,0.37189 9.2277,6.5332 18.9262,12.12039 7.5996,3.45718 15.4431,3.22805 17.825,11.73224 1.6704,6.12576 0.8313,11.63414 6.4842,13.48104 5.6527,1.8469 13.1062,-8.85098 20.0452,-10.91247 11.3335,-3.36697 21.5854,0.51102 22.8484,1.9959 1.7739,2.08568 3.2196,3.97925 3.2126,4.20668 -0.01,0.22744 -1.6793,0.54195 -3.7156,0.69706 -4.4482,0.33918 -9.3839,1.52041 -12.51,2.99591 -5.1355,2.42401 -10.6649,8.8132 -10.0268,11.5891 0.1681,0.73132 2.8818,4.58214 6.0299,8.55662 l 5.725,7.225 -4.4604,1.47562 c -11.0301,3.6414 -17.4528,8.40106 -21.5317,15.96058 -2.3083,4.27807 -3.0306,6.28403 -2.2723,6.30735 0.1616,0.005 1.5841,-0.84233 3.1608,-1.88095 10.7363,-7.0727 23.1475,-9.78983 38.5304,-8.43732 8.0782,0.71019 10.4088,1.42586 12.2567,3.76426 5.3678,6.79247 -4.8521,12.73389 -21.1208,12.27867 -10.8235,-0.30278 -22.3034,3.48841 -28.0649,9.26966 -2.1309,2.13823 -4.2083,5.64074 -4.9529,8.34492 z m 49.6509,-43.44108 c -0.2501,0.0253 -4.8668,-2.71475 -6.7276,-4.72792 -1.8607,-2.01317 0.07,-4.1912 0.1565,-4.63333 0,0 -1.1428,1.41184 0.464,3.63392 1.8607,2.01314 6.1078,5.72735 6.1078,5.72735 z m 40.0173,-99.43278 c 0.6562,0.039 0.7636,-5.01368 1.3632,-19.95516 l 0.7174,-17.85772 4.5917,-5.44064 c 3.3846,-4.0077 6.0149,-6.45908 9.9794,-9.30875 5.6872,-4.08815 7.6484,-6.13712 7.7073,-8.05328 0.035,-1.1555 -0.054,-1.17062 -7.0608,-1.2028 -8.366,-0.0383 -9.3883,0.36796 -11.3967,4.53019 -0.7267,1.50616 -2.4251,3.90305 -3.7771,5.32987 -6.9715,11.8516 -10.483,13.31619 -10.9717,14.25194 0,0.24401 0.294,3.32295 0.6526,6.84287 0.8417,8.25643 3.3151,18.76959 6.1948,26.31857 1.0155,2.66203 1.6062,4.51983 1.9999,4.54456 z m -143.1064,-35.70347 c 0.055,0.005 0.099,-0.01 0.1305,-0.0461 0.1306,-0.1361 0.4271,-2.30257 0.659,-4.81461 0.5345,-2.71562 0.1535,-4.53593 -0.3072,-7.19014 -0.076,-0.93269 -0.105,-2.143 -0.066,-3.28375 0.1991,-5.7587 1.8635,-7.50992 8.1134,-8.54163 2.589,-0.42699 5.0341,-2.95265 5.8447,-6.02918 0.5841,-2.21925 0.5967,-2.86226 0.063,-3.22393 -2.7703,-1.87268 -17.1587,2.30325 -19.5115,5.66386 -0.835,1.19267 -0.9376,2.24359 -0.803,8.13016 0.1005,4.39039 -0.059,7.26661 -0.4593,8.20809 l -0.6164,1.44853 1.49,2.94797 c 1.3345,2.64217 4.6425,6.66593 5.4619,6.72935 z"
         id="path1010"
         inkscape:connector-curvature="0"
         sodipodi:nodetypes="ccsscccccccccscccccccscccccccccccccccccscccccccccsccccccccccccccccccccccccccsccsccccccccccccccccccczscsccccccsssccccccccccccccccscccccccccccccccccccccccc" />
    </clipPath>
    <clipPath
       clipPathUnits="userSpaceOnUse"
       id="clipPath1013">
      <path
         inkscape:export-ydpi="96"
         inkscape:export-xdpi="96"
         inkscape:connector-curvature="0"
         id="path1015"
         d="m 1857.9156,-680.55614 -2.0286,-0.75372 c -3.6497,-1.25799 -7.8988,-3.3613 -12.2421,-6.0601 -7.4411,-4.62359 -9.5283,-6.61929 -12.8631,-12.30029 -3.1253,-5.32389 -9.8462,-21.29428 -10.0195,-21.28179 -0.1677,6.33389 2.3569,19.33919 -8.6678,16.8483 -6.6414,-1.50511 -69.3823,-1.2976 -78.4166,-5.23031 -3.4889,-1.81949 -7.1424,-8.83799 -7.4356,-14.56979 -2.2998,2.3844 -2.5695,8.98761 -4.0352,13.92309 -1.0792,3.63382 -2.1872,5.61211 -3.2995,5.89151 -0.9336,0.23431 -2.2669,-0.6394 -4.4305,-2.90309 -3.3275,-3.48171 -5.7357,-7.65591 -8.9396,-15.4945 -2.8528,-6.9387 -7.6616,-15.95091 -12.3554,-23.5077 0,0.29739 -0.2867,7.0567 -0.5259,11.43719 -0.102,1.86751 -0.6606,3.59799 -1.32,5.07389 0.1616,0.2794 0.3232,0.56052 0.4664,0.7334 0.096,0.1161 0.1882,0.20791 0.2765,0.27551 0.088,0.068 0.1729,0.1107 0.2538,0.1293 0.081,0.019 0.1583,0.013 0.2322,-0.018 0.064,-0.027 0.1249,-0.081 0.1841,-0.14552 0.1112,-0.21098 0.2192,-0.42579 0.3212,-0.65188 0.023,-0.065 0.052,-0.085 0.074,-0.15902 0.1109,-0.3648 0.2104,-0.83198 0.3006,-1.40348 0.09,-0.5716 0.1708,-1.24772 0.2436,-2.03001 0.073,-0.7823 0.1377,-1.6709 0.1963,-2.6679 l 0.33,-5.6374 1.3951,3.8413 c 0.4905,1.35091 0.9981,2.68171 1.5761,4.11401 0.578,1.4324 1.2267,2.96629 1.9991,4.72368 0.7725,1.75731 1.6686,3.73822 2.7424,6.06412 1.0738,2.32598 2.325,4.99708 3.8071,8.13509 1.3857,2.93381 2.589,5.57469 3.639,8.0028 0.5249,1.21409 1.0114,2.3749 1.4637,3.49271 0.4523,1.11779 0.8703,2.1925 1.2573,3.23408 0.387,1.04172 0.743,2.05021 1.0722,3.0358 0.3292,0.98571 0.6315,1.94842 0.9104,2.89812 0.2789,0.94969 0.5343,1.88629 0.7703,2.82019 0.236,0.93393 0.4526,1.86521 0.6532,2.80329 0.2778,1.29961 0.5788,2.53431 0.84,3.47649 0.1306,0.47112 0.2512,0.86921 0.354,1.1656 0.1028,0.29641 0.1879,0.4912 0.2471,0.55602 0.034,0.037 0.07,0.059 0.1093,0.067 0.039,0.0101 0.08,0 0.1245,-0.018 0.088,-0.04 0.1864,-0.13541 0.2934,-0.2826 0.107,-0.14722 0.2228,-0.34631 0.3466,-0.59362 0.1239,-0.24728 0.2559,-0.54258 0.3946,-0.88299 0.2775,-0.68059 0.5829,-1.54051 0.9084,-2.55151 0.3255,-1.011 0.671,-2.17305 1.0289,-3.45848 0.3578,-1.2854 0.7279,-2.6942 1.1026,-4.19801 0.3747,-1.50379 0.7538,-3.10258 1.1297,-4.76898 0.3759,-1.66632 0.7485,-3.40011 1.1101,-5.173 0.3616,-1.773 0.7121,-3.58511 1.0437,-5.40872 l 1.6506,-9.0746 1.9738,7.13301 1.9772,7.133 2.4198,0.28771 c 0.6659,0.079 16.9875,0.94618 33.795,1.83798 16.8075,0.89181 34.101,1.80851 36.7103,1.987 2.6093,0.17851 4.8917,0.34941 7.0751,0.57811 1.0917,0.1143 2.1585,0.24289 3.229,0.3942 1.0706,0.1514 2.1448,0.3255 3.2511,0.52999 0.7742,0.10131 1.4851,0.16801 2.1342,0.19161 0.6491,0.0241 1.2364,0 1.7633,-0.067 0.2634,-0.035 0.5117,-0.084 0.7452,-0.14592 0.2335,-0.062 0.4524,-0.13829 0.6563,-0.22939 0.2039,-0.091 0.3929,-0.19741 0.5675,-0.31951 0.1747,-0.12208 0.3348,-0.26009 0.4806,-0.41529 0.1458,-0.15521 0.2773,-0.3274 0.3946,-0.51779 0.1174,-0.19042 0.2208,-0.39881 0.31,-0.62651 0.089,-0.22759 0.1646,-0.4745 0.2261,-0.74149 0.062,-0.26702 0.1093,-0.5542 0.1435,-0.8627 0.068,-0.61701 0.082,-1.31932 0.044,-2.1149 -0.039,-0.79552 -0.1305,-1.68452 -0.2734,-2.67531 0.096,0.043 0.1946,0.12761 0.2958,0.249 0.1012,0.1215 0.2052,0.28001 0.3123,0.47149 0.2144,0.38312 0.4418,0.89861 0.6861,1.5145 0.4884,1.2319 1.0444,2.86592 1.6996,4.64781 0.3276,0.89101 0.6799,1.81869 1.061,2.7519 0.3811,0.93311 0.7911,1.8715 1.2336,2.78331 0.4425,0.91178 0.9175,1.79708 1.4293,2.6239 0.2559,0.41349 0.5209,0.81209 0.7956,1.1924 0.2747,0.38028 0.5591,0.7421 0.8536,1.0813 0.2723,0.38539 0.5777,0.7856 0.9121,1.19771 0.3344,0.4122 0.698,0.83625 1.086,1.26947 0.776,0.86638 1.6504,1.76888 2.5894,2.68518 0.9391,0.91631 1.9427,1.84621 2.9766,2.7667 1.0339,0.92061 2.0983,1.832 3.1587,2.71131 1.0604,0.87929 2.117,1.7266 3.1357,2.519 1.0186,0.7924 1.9992,1.5299 2.9078,2.18969 0.9086,0.6599 1.7452,1.24201 2.4754,1.72371 0.7302,0.4817 1.3541,0.86299 1.8377,1.1209 0.5907,0.3151 1.1074,0.5914 1.5592,0.80521 0.4518,0.21368 0.8389,0.36489 1.1703,0.42979 0.1657,0.032 0.3175,0.043 0.4566,0.029 0.139,-0.014 0.2653,-0.052 0.3801,-0.1178 0.1147,-0.066 0.2176,-0.15938 0.3103,-0.28329 0.093,-0.1239 0.1751,-0.2781 0.2481,-0.46601 0.073,-0.1879 0.1366,-0.40928 0.1922,-0.66709 0.056,-0.25781 0.1033,-0.552 0.1439,-0.88569 0.081,-0.66741 0.1343,-1.49273 0.1688,-2.49942 0.039,-1.12971 0.027,-3.0975 0.033,-4.7182 z"
         style="fill:#ff0000;fill-opacity:0.97647059;stroke:none;stroke-width:0.11163396;stroke-linecap:square;stroke-linejoin:miter;stroke-miterlimit:4;stroke-dasharray:none;stroke-opacity:1;paint-order:markers stroke fill" />
    </clipPath>
  </defs>
  <sodipodi:namedview
     id="base"
     pagecolor="#ffffff"
     bordercolor="#666666"
     borderopacity="1.0"
     inkscape:pageopacity="0.0"
     inkscape:pageshadow="2"
     inkscape:zoom="0.4774972"
     inkscape:cx="-1900.1318"
     inkscape:cy="4269.194"
     inkscape:document-units="mm"
     inkscape:current-layer="layer1"
     showgrid="false"
     inkscape:window-width="1366"
     inkscape:window-height="705"
     inkscape:window-x="-8"
     inkscape:window-y="-8"
     inkscape:window-maximized="1" />
  <metadata
     id="metadata5">
    <rdf:RDF>
      <cc:Work
         rdf:about="">
        <dc:format>image/svg+xml</dc:format>
        <dc:type
           rdf:resource="http://purl.org/dc/dcmitype/StillImage" />
        <dc:title />
      </cc:Work>
    </rdf:RDF>
  </metadata>
  <g
     inkscape:label="Layer 1"
     inkscape:groupmode="layer"
     id="layer1">
    <rect
       y="-1373.2954"
       x="-1121.037"
       height="229.8795"
       width="313.2886"
       id="rect923"
       style="fill:#feb400;fill-opacity:1;stroke:none;stroke-width:9;stroke-linecap:butt;stroke-linejoin:bevel;stroke-miterlimit:4;stroke-dasharray:none;stroke-opacity:0.85635358;paint-order:normal" />
    <circle
       inkscape:export-ydpi="96"
       inkscape:export-xdpi="96"
       r="59.834949"
       cy="-1259.9731"
       cx="-965.48621"
       id="circle925"
       style="fill:none;fill-opacity:0.97647059;stroke:#fffdf9;stroke-width:3.99776697;stroke-linecap:butt;stroke-linejoin:bevel;stroke-miterlimit:4;stroke-dasharray:none;stroke-opacity:1;paint-order:normal" />
    <path
       inkscape:export-ydpi="96"
       inkscape:export-xdpi="96"
       sodipodi:nodetypes="cscccccscccsccccccccccccsccscscccsccccsscccsccccccccccccscccssccsscsccccccscccccccsccccccccccsccssccccccccccscscccccccccccccccsccccccccccscscscccccccccc"
       style="fill:#000000;fill-opacity:1;stroke-width:0.31663227"
       d="m -1015.2203,-1215.5514 c -0.4177,-4.3463 0.3582,-10.8603 1.8393,-15.442 0.8879,-2.7468 3.1112,-7.2388 4.2992,-8.6862 0.1525,-0.1858 1.0729,-1.3352 2.0452,-2.5542 2.8328,-3.5514 2.8645,-3.4195 0.3431,1.4248 -3.9716,7.6308 -5.0093,11.2049 -5.0566,17.4148 -0.024,3.1261 0.3771,6.9906 0.9277,8.9448 0.1379,0.4895 -0.1002,0.5541 -2.0413,0.5541 h -2.1975 z m 29.84194,-7.3443 c -4.6812,-1.0392 -7.20452,-2.6125 -8.61088,-5.3691 -1.26203,-2.4738 -0.9809,-7.0905 0.56009,-9.1979 0.63079,-0.8627 0.75506,-0.5543 0.43793,1.0865 -0.37264,1.9283 -0.36795,5.2944 0.009,6.6522 0.16978,0.6111 0.84579,1.6643 1.50225,2.3405 2.21376,2.2802 5.51269,3.1731 11.64239,3.1513 2.40335,-0.01 4.49685,-0.1704 5.03091,-0.3888 0.50306,-0.2058 0.98255,-0.3062 1.06558,-0.2231 0.36185,0.3618 -1.79665,1.7634 -3.18319,2.067 -1.97281,0.432 -6.24368,0.372 -8.45434,-0.1186 z m 30.0801,-1.6729 c -3.04953,-1.1201 -2.96282,-1.177 2.05809,-1.3517 5.31694,-0.185 6.01659,-0.4001 7.56485,-2.3251 0.85833,-1.0672 0.96804,-1.4314 0.92998,-3.0872 l -0.0432,-1.8772 h 1.34713 c 1.78181,0 3.29725,-0.533 4.39877,-1.5471 1.38793,-1.2778 1.79237,-2.3316 1.79237,-4.6699 0,-3.7028 -1.6763,-5.974 -5.48501,-7.4315 -1.28013,-0.4898 -1.97163,-0.9894 -2.52577,-1.8246 -0.9399,-1.4166 -2.76612,-3.2897 -6.16624,-6.3243 -1.43249,-1.2785 -2.60451,-2.4466 -2.60451,-2.596 0,-0.3827 2.11915,0.5477 3.63415,1.5955 1.48809,1.0293 5.31295,4.7297 6.04763,5.851 0.27906,0.4258 1.59321,1.36 2.92042,2.0759 2.87765,1.5522 3.97329,2.6291 5.03548,4.9491 0.66951,1.4624 0.7749,2.0906 0.67238,4.0074 -0.21797,4.0753 -1.97258,6.3453 -5.62599,7.2786 l -1.72269,0.4399 -0.35044,1.7102 c -0.19278,0.9406 -0.53933,1.9952 -0.77016,2.3434 -0.64528,0.9736 -2.17235,2.1073 -3.45628,2.5659 -1.14112,0.4076 -6.70316,0.5659 -7.651,0.2177 z m 0.65871,-13.2017 c -0.72726,-0.8763 -0.95936,-2.3412 -0.43931,-2.7727 0.39836,-0.3307 0.56254,-0.2922 0.94256,0.2209 0.44945,0.6068 0.47517,0.601 1.09879,-0.2473 0.51522,-0.7007 0.75261,-0.8075 1.22864,-0.5527 0.57194,0.306 0.56981,0.3618 -0.0698,1.8184 -0.36291,0.8264 -0.8177,1.6074 -1.01067,1.7354 -0.55928,0.3708 -1.35061,0.2795 -1.75021,-0.202 z m -54.96115,-9.5679 c -2.9523,-0.7477 -4.7226,-1.5663 -6.1375,-2.8385 -2.1249,-1.9105 -3.9519,-4.6942 -3.711,-5.6543 0.1639,-0.6528 0.4074,-0.7496 2.1669,-0.862 1.7344,-0.1106 2.2081,-0.2934 3.7893,-1.4618 0.9939,-0.7345 1.9557,-1.3356 2.1373,-1.3356 0.1816,0 0.3301,-0.1328 0.3301,-0.2952 0,-0.1624 0.314,-0.3949 0.6977,-0.5167 0.3837,-0.1218 0.8814,-0.4051 1.1059,-0.6297 0.2246,-0.2245 1.941,-1.0085 3.8144,-1.7422 2.7744,-1.0864 3.912,-1.363 6.13418,-1.4912 l 2.72814,-0.1574 0.16749,-2.4437 c 0.4571,-6.6691 5.62234,-10.8847 15.90724,-12.9829 1.56735,-0.3198 3.98958,-0.7447 5.38275,-0.9442 6.7041,-0.9604 10.4217,-2.917 12.14091,-6.3904 l 0.6822,-1.3782 2.5e-4,1.1668 c 5.4e-4,2.4737 -1.47916,4.4563 -4.43258,5.9393 -2.10411,1.0565 -4.31652,1.6175 -10.76552,2.7296 -10.31519,1.7788 -15.19156,4.5078 -16.92635,9.4725 -0.78826,2.2559 -0.82498,3.4468 -0.2122,6.8822 0.0223,0.1246 0.47319,0.6694 1.00215,1.2105 2.19569,2.2461 5.93796,2.9587 10.91196,2.0777 4.00549,-0.7094 4.35723,-0.6782 2.97098,0.2638 -2.86274,1.9453 -8.65216,2.3107 -11.995,0.757 -1.91954,-0.8921 -4.17923,-2.9882 -4.44538,-4.1234 -0.52843,-2.2541 -8.66602,0.081 -15.01272,4.3073 -2.7054,1.8016 -3.9874,2.4624 -5.0641,2.6099 -0.7929,0.1087 -1.4407,0.2851 -1.4396,0.392 0,0.4597 2.7023,3.2899 3.9607,4.1558 1.7881,1.2301 5.5278,2.0374 10.2857,2.2201 0.2612,0.01 0.051,0.2476 -0.4669,0.5279 -0.9369,0.507 -4.4993,0.841 -5.7074,0.535 z m 44.80346,-1.3685 c -3.645,-0.2091 -4.50325,-0.5233 -5.22117,-1.9115 -0.67519,-1.3057 -0.60706,-1.3871 0.48525,-0.5795 0.72284,0.5343 1.5136,0.7433 3.16632,0.8367 1.21158,0.069 2.20285,0 2.20285,-0.1552 0,-0.1537 -0.75381,-1.1026 -1.67513,-2.1085 -1.5908,-1.7368 -1.77577,-1.843 -3.67472,-2.1115 -1.09977,-0.1554 -2.06123,-0.3442 -2.13659,-0.4196 -0.21025,-0.2103 2.57381,-0.8515 3.69688,-0.8515 0.81365,0 1.38265,0.3957 3.1053,2.1597 1.16,1.1879 2.63543,2.5523 3.27876,3.0321 1.05456,0.7864 1.13523,0.9478 0.81989,1.6397 -0.19233,0.4223 -0.4337,0.7434 -0.53637,0.7137 -0.10267,-0.03 -1.68272,-0.1398 -3.51127,-0.2446 z m -41.32056,-2.4143 c -1.7415,-0.6151 -4.0433,-1.3369 -5.1152,-1.604 -1.8838,-0.4695 -2.5957,-1.1337 -2.0493,-1.9121 0.1828,-0.2606 3.9907,-1.496 7.7876,-2.5265 3.6531,-0.9914 8.05878,-0.2715 10.18126,1.6639 1.08345,0.9881 1.13469,1.0951 0.43612,0.9118 -4.98352,-1.308 -5.98748,-1.4765 -7.91578,-1.3285 -2.0231,0.1553 -6.3327,1.4053 -6.3327,1.8367 0,0.2239 1.673,0.9539 3.9579,1.7269 1.5866,0.5367 5.41824,1.1563 6.3751,1.031 1.08089,-0.1417 0.88462,0.4863 -0.28464,0.9106 -1.80866,0.6563 -3.71676,0.464 -7.04036,-0.7098 z m 60.00185,-3.7821 c 0,-0.089 0.27929,-1.1702 0.62064,-2.4019 0.92952,-3.3543 1.08748,-5.5336 0.56398,-7.781 -0.47428,-2.0362 -2.57257,-5.7381 -4.33227,-7.6432 -1.21945,-1.3203 -1.21629,-1.4706 0.0175,-0.8325 5.5545,2.8723 7.83703,11.8763 4.3774,17.2677 -0.92309,1.4385 -1.2473,1.8 -1.2473,1.3909 z m -12.09232,-6.4202 c -0.59614,-0.6598 -1.53145,-1.8502 -2.07846,-2.6453 -1.46776,-2.1333 -3.29106,-2.8224 -8.04825,-3.0415 -2.05964,-0.094 -3.74481,-0.2798 -3.74481,-0.4111 0,-0.4509 3.32756,-1.0526 5.50271,-0.995 4.58817,0.1216 6.33207,1.1997 8.42911,5.2106 l 1.42485,2.7253 1.32251,-1.4839 c 2.10224,-2.3589 3.11509,-4.6136 3.08472,-6.8667 -0.0141,-1.0449 -0.13972,-2.5054 -0.27918,-3.2455 -0.50619,-2.6867 1.22863,-1.1176 1.80561,1.6331 0.49811,2.3747 -0.21805,5.2912 -1.84278,7.5045 -2.3239,3.1659 -3.7913,3.591 -5.57603,1.6155 z m -17.34484,-2.3072 c -0.005,-0.2744 -0.35846,-0.8266 -0.78479,-1.2272 -0.42635,-0.4004 -0.86188,-1.123 -0.96785,-1.6055 -0.22482,-1.0235 0.50109,-2.9619 1.52066,-4.0604 0.95901,-1.0333 4.42981,-3.2562 6.66733,-4.2702 2.47169,-1.1201 5.22189,-3.1807 6.54453,-4.9037 1.13297,-1.4758 2.14038,-4.601 2.2129,-6.8649 l 0.0406,-1.2665 0.47726,1.2665 c 0.62676,1.6634 0.40152,4.6648 -0.47567,6.3383 -1.47523,2.8147 -3.78765,4.6973 -9.07364,7.3872 -3.31474,1.6869 -5.44845,3.3711 -6.24695,4.931 -0.43078,0.8416 -0.41875,1.0489 0.13308,2.2965 0.44504,1.0061 0.52081,1.5188 0.28442,1.9247 -0.27148,0.466 -0.32372,0.4746 -0.33185,0.054 z"
       id="path927"
       inkscape:connector-curvature="0" />
    <text
       inkscape:export-ydpi="96"
       inkscape:export-xdpi="96"
       id="text931"
       y="-1182.6317"
       x="-1043.8636"
       style="font-style:normal;font-weight:normal;font-size:16.44379807px;line-height:1.25;font-family:sans-serif;letter-spacing:0px;word-spacing:0px;fill:#000000;fill-opacity:1;stroke:none;stroke-width:0.41109493"
       xml:space="preserve"><tspan
         style="font-style:normal;font-variant:normal;font-weight:normal;font-stretch:normal;font-family:Vogue;-inkscape-font-specification:Vogue;fill:#000000;stroke-width:0.41109493"
         y="-1182.6317"
         x="-1043.8636"
         id="tspan929"
         sodipodi:role="line">trader ox company</tspan></text>
    <rect
       style="fill:#feb400;fill-opacity:1;stroke:none;stroke-width:8.06877995;stroke-linecap:butt;stroke-linejoin:bevel;stroke-miterlimit:4;stroke-dasharray:none;stroke-opacity:0.85635358;paint-order:normal"
       id="rect933"
       width="341.54794"
       height="169.48212"
       x="-876.67688"
       y="-931.67413"
       inkscape:export-xdpi="96"
       inkscape:export-ydpi="96" />
    <circle
       style="fill:#feb400;fill-opacity:1;stroke:#fffdf9;stroke-width:3.99776697;stroke-linecap:butt;stroke-linejoin:bevel;stroke-miterlimit:4;stroke-dasharray:none;stroke-opacity:1;paint-order:normal"
       id="path1002-2"
       cx="-704.82086"
       cy="-851.98956"
       r="59.834949"
       inkscape:export-xdpi="96"
       inkscape:export-ydpi="96" />
    <path
       inkscape:connector-curvature="0"
       id="path923-5"
       d="m -754.55503,-807.56775 c -0.41764,-4.3463 0.35828,-10.86031 1.83934,-15.44201 0.88795,-2.7468 3.11123,-7.2388 4.29922,-8.6862 0.15248,-0.1858 1.07284,-1.3352 2.04523,-2.5542 2.83271,-3.5514 2.86443,-3.4195 0.34309,1.4248 -3.97164,7.6308 -5.00938,11.2049 -5.0566,17.4148 -0.0238,3.12611 0.37702,6.99061 0.92768,8.94481 0.13793,0.4895 -0.10018,0.5541 -2.04136,0.5541 h -2.19747 z m 29.84199,-7.34431 c -4.6812,-1.0392 -7.20452,-2.6125 -8.61088,-5.3691 -1.26203,-2.4738 -0.9809,-7.0905 0.56009,-9.1979 0.63079,-0.8627 0.75506,-0.5543 0.43793,1.0865 -0.37264,1.9283 -0.36795,5.2944 0.009,6.6522 0.16978,0.6111 0.84579,1.6643 1.50225,2.3405 2.21376,2.2802 5.51269,3.1731 11.64239,3.1513 2.40335,-0.01 4.49685,-0.1704 5.03091,-0.3888 0.50306,-0.2058 0.98255,-0.3062 1.06558,-0.2231 0.36185,0.3618 -1.79665,1.7634 -3.18319,2.067 -1.97281,0.432 -6.24368,0.372 -8.45434,-0.1186 z m 30.0801,-1.6729 c -3.04953,-1.1201 -2.96282,-1.177 2.05809,-1.3517 5.31694,-0.185 6.01659,-0.4001 7.56485,-2.3251 0.85833,-1.0672 0.96804,-1.4314 0.92998,-3.0872 l -0.0432,-1.8772 h 1.34713 c 1.78181,0 3.29725,-0.533 4.39877,-1.5471 1.38793,-1.2778 1.79237,-2.3316 1.79237,-4.6699 0,-3.7028 -1.6763,-5.974 -5.48501,-7.4315 -1.28013,-0.4898 -1.97163,-0.9894 -2.52577,-1.8246 -0.9399,-1.4166 -2.76612,-3.2897 -6.16624,-6.3243 -1.43249,-1.2785 -2.60451,-2.4466 -2.60451,-2.596 0,-0.3827 2.11915,0.5477 3.63415,1.5955 1.48809,1.0293 5.31295,4.7297 6.04763,5.851 0.27906,0.4258 1.59321,1.36 2.92042,2.0759 2.87765,1.5522 3.97329,2.6291 5.03548,4.9491 0.66951,1.4624 0.7749,2.0906 0.67238,4.0074 -0.21797,4.0753 -1.97258,6.3453 -5.62599,7.2786 l -1.72269,0.4399 -0.35044,1.7102 c -0.19278,0.9406 -0.53933,1.9952 -0.77016,2.3434 -0.64528,0.9736 -2.17235,2.1073 -3.45628,2.5659 -1.14112,0.4076 -6.70316,0.5659 -7.651,0.2177 z m 0.65871,-13.2017 c -0.72726,-0.8763 -0.95936,-2.3412 -0.43931,-2.7727 0.39836,-0.3307 0.56254,-0.2922 0.94256,0.2209 0.44945,0.6068 0.47517,0.601 1.09879,-0.2473 0.51522,-0.7007 0.75261,-0.8075 1.22864,-0.5527 0.57194,0.306 0.56981,0.3618 -0.0698,1.8184 -0.36291,0.8264 -0.8177,1.6074 -1.01067,1.7354 -0.55928,0.3708 -1.35061,0.2795 -1.75021,-0.202 z m -54.96116,-9.5679 c -2.95234,-0.7477 -4.72261,-1.5663 -6.13751,-2.8385 -2.12489,-1.9105 -3.95191,-4.6942 -3.71094,-5.6543 0.16387,-0.6528 0.40731,-0.7496 2.16682,-0.862 1.73446,-0.1106 2.20812,-0.2934 3.78934,-1.4618 0.99391,-0.7345 1.95571,-1.3356 2.13728,-1.3356 0.18159,0 0.33014,-0.1328 0.33014,-0.2952 0,-0.1624 0.31396,-0.3949 0.69765,-0.5167 0.38372,-0.1218 0.88139,-0.4051 1.10593,-0.6297 0.22456,-0.2245 1.94101,-1.0085 3.81436,-1.7422 2.77445,-1.0864 3.91201,-1.363 6.13422,-1.4912 l 2.72814,-0.1574 0.16749,-2.4437 c 0.4571,-6.6691 5.62234,-10.88467 15.90724,-12.98287 1.56735,-0.3198 3.98958,-0.7447 5.38275,-0.9442 6.7041,-0.9604 10.4217,-2.917 12.14091,-6.3904 l 0.6822,-1.3782 2.5e-4,1.1668 c 5.3e-4,2.4737 -1.47916,4.4563 -4.43258,5.9393 -2.10411,1.0565 -4.31652,1.6175 -10.76552,2.7296 -10.31519,1.7788 -15.19156,4.50777 -16.92635,9.47247 -0.78826,2.2559 -0.82498,3.4468 -0.2122,6.8822 0.0223,0.1246 0.47319,0.6694 1.00215,1.2105 2.19569,2.2461 5.93796,2.9587 10.91196,2.0777 4.00549,-0.7094 4.35723,-0.6782 2.97098,0.2638 -2.86274,1.9453 -8.65216,2.3107 -11.995,0.757 -1.91954,-0.8921 -4.17923,-2.9882 -4.44538,-4.1234 -0.52843,-2.2541 -8.66599,0.081 -15.01277,4.3073 -2.70535,1.8016 -3.98737,2.4624 -5.06405,2.6099 -0.7929,0.1087 -1.44073,0.2851 -1.43962,0.392 0.005,0.4597 2.70231,3.2899 3.96076,4.1558 1.78803,1.2301 5.5278,2.0374 10.28568,2.2201 0.26121,0.01 0.0511,0.2476 -0.4669,0.5279 -0.93697,0.507 -4.49933,0.841 -5.70743,0.535 z m 44.80347,-1.3685 c -3.645,-0.2091 -4.50325,-0.5233 -5.22117,-1.9115 -0.67519,-1.3057 -0.60706,-1.3871 0.48525,-0.5795 0.72284,0.5343 1.5136,0.7433 3.16632,0.8367 1.21158,0.069 2.20285,0 2.20285,-0.1552 0,-0.1537 -0.75381,-1.1026 -1.67513,-2.1085 -1.5908,-1.7368 -1.77577,-1.843 -3.67472,-2.1115 -1.09977,-0.1554 -2.06123,-0.3442 -2.13659,-0.4196 -0.21025,-0.2103 2.57381,-0.8515 3.69688,-0.8515 0.81365,0 1.38265,0.3957 3.1053,2.1597 1.16,1.1879 2.63543,2.5523 3.27876,3.0321 1.05456,0.7864 1.13523,0.9478 0.81989,1.6397 -0.19233,0.4223 -0.4337,0.7434 -0.53637,0.7137 -0.10267,-0.03 -1.68272,-0.1398 -3.51127,-0.2446 z m -41.32052,-2.4143 c -1.7415,-0.6151 -4.04338,-1.3369 -5.11529,-1.604 -1.8838,-0.4695 -2.59563,-1.1337 -2.0493,-1.9121 0.18283,-0.2606 3.99075,-1.496 7.78768,-2.5265 3.65309,-0.9914 8.05875,-0.2715 10.18123,1.6639 1.08345,0.9881 1.13469,1.0951 0.43612,0.9118 -4.98352,-1.308 -5.98748,-1.4765 -7.9158,-1.3285 -2.02307,0.1553 -6.33265,1.4053 -6.33265,1.8367 0,0.2239 1.673,0.9539 3.95789,1.7269 1.58654,0.5367 5.41822,1.1563 6.37508,1.031 1.08089,-0.1417 0.88462,0.4863 -0.28464,0.9106 -1.80869,0.6563 -3.71675,0.464 -7.04032,-0.7098 z m 60.00181,-3.7821 c 0,-0.089 0.27929,-1.1702 0.62064,-2.4019 0.92952,-3.3543 1.08748,-5.5336 0.56398,-7.781 -0.47428,-2.0362 -2.57257,-5.7381 -4.33227,-7.6432 -1.21945,-1.3203 -1.21629,-1.4706 0.0175,-0.8325 5.5545,2.8723 7.83703,11.8763 4.3774,17.2677 -0.92309,1.4385 -1.24731,1.8 -1.24731,1.3909 z m -12.09232,-6.4202 c -0.59614,-0.6598 -1.53145,-1.8502 -2.07846,-2.6453 -1.46776,-2.1333 -3.29106,-2.8224 -8.04825,-3.0415 -2.05964,-0.094 -3.74481,-0.2798 -3.74481,-0.4111 0,-0.4509 3.32756,-1.0526 5.50271,-0.995 4.58817,0.1216 6.33207,1.1997 8.42911,5.2106 l 1.42485,2.7253 1.32251,-1.4839 c 2.10224,-2.3589 3.11509,-4.6136 3.08472,-6.8667 -0.0141,-1.0449 -0.13972,-2.5054 -0.27918,-3.2455 -0.50619,-2.6867 1.22863,-1.1176 1.80561,1.6331 0.49811,2.3747 -0.21805,5.2912 -1.84278,7.5045 -2.3239,3.1659 -3.7913,3.591 -5.57603,1.6155 z m -17.34484,-2.3072 c -0.005,-0.2744 -0.35846,-0.8266 -0.78479,-1.2272 -0.42635,-0.4004 -0.86188,-1.123 -0.96785,-1.6055 -0.22482,-1.0235 0.50109,-2.9619 1.52066,-4.0604 0.95901,-1.0333 4.42981,-3.2562 6.66733,-4.2702 2.47169,-1.12007 5.22189,-3.18067 6.54453,-4.90367 1.13297,-1.4758 2.14038,-4.601 2.2129,-6.8649 l 0.0406,-1.2665 0.47726,1.2665 c 0.62676,1.6634 0.40152,4.6648 -0.47567,6.3383 -1.47523,2.8147 -3.78765,4.6973 -9.07364,7.38717 -3.31474,1.6869 -5.44845,3.3711 -6.24695,4.931 -0.43078,0.8416 -0.41875,1.0489 0.13308,2.2965 0.44504,1.0061 0.52081,1.5188 0.28442,1.9247 -0.27148,0.466 -0.32372,0.4746 -0.33185,0.054 z"
       style="fill:#000000;fill-opacity:1;stroke-width:0.31663227"
       sodipodi:nodetypes="cscccccscccsccccccccccccsccscscccsccccsscccsccccccccccccscccssccsscsccccccscccccccsccccccccccsccssccccccccccscscccccccccccccccsccccccccccscscscccccccccc"
       inkscape:export-xdpi="96"
       inkscape:export-ydpi="96" />
    <text
       xml:space="preserve"
       style="font-style:normal;font-weight:normal;font-size:16.44379807px;line-height:1.25;font-family:sans-serif;letter-spacing:0px;word-spacing:0px;fill:#000000;fill-opacity:1;stroke:none;stroke-width:0.41109493"
       x="-732.77484"
       y="-775.20221"
       id="text1179-7"
       inkscape:export-xdpi="96"
       inkscape:export-ydpi="96"><tspan
         sodipodi:role="line"
         id="tspan1177-9"
         x="-732.77484"
         y="-775.20221"
         style="font-style:normal;font-variant:normal;font-weight:normal;font-stretch:normal;font-family:Vogue;-inkscape-font-specification:Vogue;fill:#000000;stroke-width:0.41109493">trader</tspan></text>
    <circle
       style="fill:#feb400;fill-opacity:1;stroke:none;stroke-width:3.998;stroke-linecap:butt;stroke-linejoin:bevel;stroke-miterlimit:4;stroke-dasharray:none;stroke-opacity:1;paint-order:normal"
       id="path1002-2-4"
       cx="-444.01529"
       cy="-668.7771"
       r="59.834949"
       inkscape:export-xdpi="96"
       inkscape:export-ydpi="96" />
    <path
       inkscape:connector-curvature="0"
       id="path923-5-2"
       d="m -632.27557,-629.34226 c -0.41764,-4.3463 0.35828,-10.86031 1.83934,-15.44201 0.88795,-2.7468 3.11123,-7.2388 4.29922,-8.68619 0.15248,-0.18581 1.07284,-1.33521 2.04523,-2.55421 2.83271,-3.5514 2.86443,-3.4195 0.34309,1.4248 -3.97164,7.63081 -5.00938,11.20491 -5.0566,17.4148 -0.0238,3.12611 0.37702,6.99062 0.92768,8.94481 0.13793,0.4895 -0.10018,0.55411 -2.04136,0.55411 h -2.19747 z m 29.84199,-7.34431 c -4.6812,-1.0392 -7.20452,-2.6125 -8.61088,-5.36909 -1.26203,-2.47381 -0.9809,-7.0905 0.56009,-9.19791 0.63079,-0.8627 0.75506,-0.5543 0.43793,1.08651 -0.37264,1.92829 -0.36795,5.2944 0.009,6.65219 0.16978,0.6111 0.84578,1.6643 1.50225,2.3405 2.21376,2.2802 5.51269,3.1731 11.64239,3.1513 2.40335,-0.01 4.49685,-0.1704 5.03091,-0.3888 0.50306,-0.2058 0.98255,-0.3062 1.06558,-0.22309 0.36185,0.36179 -1.79665,1.7634 -3.18319,2.06699 -1.97281,0.43201 -6.24369,0.372 -8.45434,-0.1186 z m 30.0801,-1.67289 c -3.04953,-1.1201 -2.96282,-1.17701 2.05809,-1.35171 5.31694,-0.18499 6.01659,-0.4001 7.56485,-2.3251 0.85833,-1.06719 0.96804,-1.4314 0.92998,-3.0872 l -0.0432,-1.8772 h 1.34713 c 1.78181,0 3.29725,-0.533 4.39877,-1.54709 1.38793,-1.2778 1.79237,-2.33161 1.79237,-4.66991 0,-3.70279 -1.6763,-5.974 -5.48501,-7.4315 -1.28013,-0.4898 -1.97163,-0.9894 -2.52577,-1.8246 -0.9399,-1.4166 -2.76612,-3.2897 -6.16624,-6.3243 -1.43249,-1.2785 -2.60451,-2.4466 -2.60451,-2.596 0,-0.3827 2.11915,0.5477 3.63415,1.5955 1.48809,1.0293 5.31295,4.7297 6.04763,5.851 0.27906,0.4258 1.59321,1.36 2.92042,2.0759 2.87765,1.5522 3.97329,2.6291 5.03548,4.9491 0.66951,1.4624 0.7749,2.0906 0.67238,4.00741 -0.21797,4.0753 -1.97258,6.34529 -5.62599,7.2786 l -1.72269,0.43989 -0.35044,1.7102 c -0.19278,0.9406 -0.53933,1.9952 -0.77016,2.3434 -0.64528,0.9736 -2.17235,2.1073 -3.45628,2.5659 -1.14112,0.4076 -6.70316,0.5659 -7.651,0.21771 z m 0.65871,-13.2017 c -0.72726,-0.8763 -0.95936,-2.34121 -0.43931,-2.77271 0.39836,-0.3307 0.56254,-0.2922 0.94256,0.2209 0.44945,0.6068 0.47517,0.601 1.09879,-0.2473 0.51522,-0.7007 0.75261,-0.8075 1.22864,-0.5527 0.57194,0.306 0.56981,0.3618 -0.0698,1.8184 -0.36291,0.8264 -0.8177,1.6074 -1.01067,1.7354 -0.55928,0.3708 -1.35061,0.2795 -1.75021,-0.20199 z m -54.96116,-9.5679 c -2.95234,-0.74771 -4.72261,-1.56631 -6.13751,-2.83851 -2.12489,-1.9105 -3.95191,-4.6942 -3.71094,-5.6543 0.16387,-0.6528 0.40731,-0.7496 2.16682,-0.862 1.73446,-0.1106 2.20812,-0.2934 3.78934,-1.4618 0.99391,-0.7345 1.95571,-1.3356 2.13728,-1.3356 0.18159,0 0.33014,-0.1328 0.33014,-0.2952 0,-0.1624 0.31396,-0.3949 0.69765,-0.5167 0.38372,-0.1218 0.88139,-0.4051 1.10593,-0.6297 0.22456,-0.2245 1.94101,-1.0085 3.81436,-1.7422 2.77445,-1.0864 3.91201,-1.363 6.13422,-1.4912 l 2.72814,-0.1574 0.16749,-2.4437 c 0.4571,-6.6691 5.62234,-10.88467 15.90724,-12.98287 1.56735,-0.3198 3.98958,-0.7447 5.38275,-0.9442 6.7041,-0.9604 10.4217,-2.917 12.14091,-6.3904 l 0.6822,-1.3782 2.5e-4,1.1668 c 5.3e-4,2.4737 -1.47916,4.4563 -4.43258,5.9393 -2.10411,1.0565 -4.31652,1.6175 -10.76552,2.7296 -10.31519,1.7788 -15.19156,4.50777 -16.92635,9.47247 -0.78826,2.2559 -0.82498,3.4468 -0.2122,6.8822 0.0223,0.1246 0.47319,0.6694 1.00215,1.2105 2.19569,2.2461 5.93796,2.9587 10.91196,2.0777 4.00549,-0.7094 4.35723,-0.6782 2.97098,0.2638 -2.86274,1.9453 -8.65216,2.3107 -11.995,0.757 -1.91954,-0.8921 -4.17923,-2.9882 -4.44538,-4.1234 -0.52843,-2.2541 -8.66599,0.081 -15.01277,4.3073 -2.70535,1.8016 -3.98737,2.4624 -5.06405,2.6099 -0.7929,0.1087 -1.44073,0.2851 -1.43962,0.392 0.005,0.4597 2.70231,3.2899 3.96076,4.1558 1.78803,1.2301 5.5278,2.0374 10.28568,2.2201 0.26121,0.01 0.0511,0.2476 -0.4669,0.5279 -0.93697,0.507 -4.49933,0.841 -5.70743,0.53501 z m 44.80347,-1.36851 c -3.645,-0.2091 -4.50325,-0.5233 -5.22117,-1.9115 -0.67519,-1.3057 -0.60706,-1.3871 0.48525,-0.5795 0.72284,0.5343 1.5136,0.7433 3.16632,0.8367 1.21158,0.069 2.20285,0 2.20285,-0.1552 0,-0.1537 -0.75381,-1.1026 -1.67513,-2.1085 -1.5908,-1.7368 -1.77577,-1.843 -3.67472,-2.1115 -1.09977,-0.1554 -2.06123,-0.3442 -2.13659,-0.4196 -0.21025,-0.2103 2.57381,-0.8515 3.69688,-0.8515 0.81365,0 1.38265,0.3957 3.1053,2.1597 1.16,1.1879 2.63543,2.5523 3.27876,3.0321 1.05456,0.7864 1.13523,0.9478 0.81989,1.6397 -0.19233,0.4223 -0.4337,0.7434 -0.53637,0.7137 -0.10267,-0.03 -1.68272,-0.1398 -3.51127,-0.2446 z m -41.32052,-2.4143 c -1.7415,-0.6151 -4.04338,-1.3369 -5.11529,-1.604 -1.8838,-0.4695 -2.59563,-1.1337 -2.0493,-1.9121 0.18283,-0.2606 3.99075,-1.496 7.78768,-2.5265 3.65309,-0.9914 8.05875,-0.2715 10.18123,1.6639 1.08345,0.9881 1.13469,1.0951 0.43612,0.9118 -4.98352,-1.308 -5.98748,-1.4765 -7.9158,-1.3285 -2.02307,0.1553 -6.33265,1.4053 -6.33265,1.8367 0,0.2239 1.673,0.9539 3.95789,1.7269 1.58654,0.5367 5.41822,1.1563 6.37508,1.031 1.08089,-0.1417 0.88462,0.4863 -0.28464,0.9106 -1.80869,0.6563 -3.71675,0.464 -7.04032,-0.7098 z m 60.00181,-3.7821 c 0,-0.089 0.27929,-1.1702 0.62064,-2.4019 0.92952,-3.3543 1.08748,-5.5336 0.56398,-7.781 -0.47428,-2.0362 -2.57257,-5.7381 -4.33227,-7.6432 -1.21945,-1.3203 -1.21629,-1.4706 0.0175,-0.8325 5.5545,2.8723 7.83703,11.8763 4.3774,17.2677 -0.92309,1.4385 -1.24731,1.8 -1.24731,1.3909 z m -12.09232,-6.4202 c -0.59614,-0.6598 -1.53145,-1.8502 -2.07846,-2.6453 -1.46776,-2.1333 -3.29106,-2.8224 -8.04825,-3.0415 -2.05964,-0.094 -3.74481,-0.2798 -3.74481,-0.4111 0,-0.4509 3.32756,-1.0526 5.50271,-0.995 4.58817,0.1216 6.33207,1.1997 8.42911,5.2106 l 1.42485,2.7253 1.32251,-1.4839 c 2.10224,-2.3589 3.11509,-4.6136 3.08472,-6.8667 -0.0141,-1.0449 -0.13972,-2.5054 -0.27918,-3.2455 -0.50619,-2.6867 1.22863,-1.1176 1.80561,1.6331 0.49811,2.3747 -0.21805,5.2912 -1.84278,7.5045 -2.3239,3.1659 -3.7913,3.591 -5.57603,1.6155 z m -17.34484,-2.3072 c -0.005,-0.2744 -0.35846,-0.8266 -0.78479,-1.2272 -0.42635,-0.4004 -0.86188,-1.123 -0.96785,-1.6055 -0.22482,-1.0235 0.50109,-2.9619 1.52066,-4.0604 0.95901,-1.0333 4.42981,-3.2562 6.66733,-4.2702 2.47169,-1.12007 5.22189,-3.18067 6.54453,-4.90367 1.13297,-1.4758 2.14038,-4.601 2.2129,-6.8649 l 0.0406,-1.2665 0.47726,1.2665 c 0.62676,1.6634 0.40152,4.6648 -0.47567,6.3383 -1.47523,2.8147 -3.78765,4.6973 -9.07364,7.38717 -3.31474,1.6869 -5.44845,3.3711 -6.24695,4.931 -0.43078,0.8416 -0.41875,1.0489 0.13308,2.2965 0.44504,1.0061 0.52081,1.5188 0.28442,1.9247 -0.27148,0.466 -0.32372,0.4746 -0.33185,0.054 z"
       style="fill:#000000;fill-opacity:1;stroke-width:0.31663227"
       sodipodi:nodetypes="cscccccscccsccccccccccccsccscscccsccccsscccsccccccccccccscccssccsscsccccccscccccccsccccccccccsccssccccccccccscscccccccccccccccsccccccccccscscscccccccccc"
       inkscape:export-xdpi="96"
       inkscape:export-ydpi="96" />
    <circle
       inkscape:export-ydpi="96"
       inkscape:export-xdpi="96"
       r="59.834949"
       cy="-859.74701"
       cx="-448.82458"
       id="circle838"
       style="fill:none;fill-opacity:1;stroke:#ffffff;stroke-width:3.99776697;stroke-linecap:butt;stroke-linejoin:bevel;stroke-miterlimit:4;stroke-dasharray:none;stroke-opacity:1;paint-order:normal" />
    <path
       inkscape:export-ydpi="96"
       inkscape:export-xdpi="96"
       sodipodi:nodetypes="cscccccscccsccccccccccccsccscscccsccccsscccsccccccccccccscccssccsscsccccccscccccccsccccccccccsccssccccccccccscscccccccccccccccsccccccccccscscscccccccccc"
       style="fill:#000000;fill-opacity:1;stroke-width:0.31663227"
       d="m -498.55876,-815.32521 c -0.41764,-4.3463 0.35828,-10.86031 1.83934,-15.44201 0.88795,-2.7468 3.11123,-7.2388 4.29922,-8.6862 0.15248,-0.1858 1.07284,-1.3352 2.04523,-2.5542 2.83271,-3.5514 2.86443,-3.4195 0.34309,1.4248 -3.97164,7.6308 -5.00938,11.2049 -5.0566,17.4148 -0.0238,3.12611 0.37702,6.99061 0.92768,8.94481 0.13793,0.4895 -0.10018,0.5541 -2.04136,0.5541 h -2.19747 z m 29.84199,-7.34431 c -4.6812,-1.0392 -7.20452,-2.6125 -8.61088,-5.3691 -1.26203,-2.4738 -0.9809,-7.0905 0.56009,-9.1979 0.63079,-0.8627 0.75506,-0.5543 0.43793,1.0865 -0.37264,1.9283 -0.36795,5.2944 0.009,6.6522 0.16978,0.6111 0.84579,1.6643 1.50225,2.3405 2.21376,2.2802 5.51269,3.1731 11.64239,3.1513 2.40335,-0.01 4.49685,-0.1704 5.03091,-0.3888 0.50306,-0.2058 0.98255,-0.3062 1.06558,-0.2231 0.36185,0.3618 -1.79665,1.7634 -3.18319,2.067 -1.97281,0.432 -6.24368,0.372 -8.45434,-0.1186 z m 30.0801,-1.6729 c -3.04953,-1.1201 -2.96282,-1.177 2.05809,-1.3517 5.31694,-0.185 6.01659,-0.4001 7.56485,-2.3251 0.85833,-1.0672 0.96804,-1.4314 0.92998,-3.0872 l -0.0432,-1.8772 h 1.34713 c 1.78181,0 3.29725,-0.533 4.39877,-1.5471 1.38793,-1.2778 1.79237,-2.3316 1.79237,-4.6699 0,-3.7028 -1.6763,-5.974 -5.48501,-7.4315 -1.28013,-0.4898 -1.97163,-0.9894 -2.52577,-1.8246 -0.9399,-1.4166 -2.76612,-3.2897 -6.16624,-6.3243 -1.43249,-1.2785 -2.60451,-2.4466 -2.60451,-2.596 0,-0.3827 2.11915,0.5477 3.63415,1.5955 1.48809,1.0293 5.31295,4.7297 6.04763,5.851 0.27906,0.4258 1.59321,1.36 2.92042,2.0759 2.87765,1.5522 3.97329,2.6291 5.03548,4.9491 0.66951,1.4624 0.7749,2.0906 0.67238,4.0074 -0.21797,4.0753 -1.97258,6.3453 -5.62599,7.2786 l -1.72269,0.4399 -0.35044,1.7102 c -0.19278,0.9406 -0.53933,1.9952 -0.77016,2.3434 -0.64528,0.9736 -2.17235,2.1073 -3.45628,2.5659 -1.14112,0.4076 -6.70316,0.5659 -7.651,0.2177 z m 0.65871,-13.2017 c -0.72726,-0.8763 -0.95936,-2.3412 -0.43931,-2.7727 0.39836,-0.3307 0.56254,-0.2922 0.94256,0.2209 0.44945,0.6068 0.47517,0.601 1.09879,-0.2473 0.51522,-0.7007 0.75261,-0.8075 1.22864,-0.5527 0.57194,0.306 0.56981,0.3618 -0.0698,1.8184 -0.36291,0.8264 -0.8177,1.6074 -1.01067,1.7354 -0.55928,0.3708 -1.35061,0.2795 -1.75021,-0.202 z m -54.96116,-9.5679 c -2.95234,-0.7477 -4.72261,-1.5663 -6.13751,-2.8385 -2.12489,-1.9105 -3.95191,-4.6942 -3.71094,-5.6543 0.16387,-0.6528 0.40731,-0.7496 2.16682,-0.862 1.73446,-0.1106 2.20812,-0.2934 3.78934,-1.4618 0.99391,-0.7345 1.95571,-1.3356 2.13728,-1.3356 0.18159,0 0.33014,-0.1328 0.33014,-0.2952 0,-0.1624 0.31396,-0.3949 0.69765,-0.5167 0.38372,-0.1218 0.88139,-0.4051 1.10593,-0.6297 0.22456,-0.2245 1.94101,-1.0085 3.81436,-1.7422 2.77445,-1.0864 3.91201,-1.363 6.13422,-1.4912 l 2.72814,-0.1574 0.16749,-2.4437 c 0.4571,-6.6691 5.62234,-10.88467 15.90724,-12.98287 1.56735,-0.3198 3.98958,-0.7447 5.38275,-0.9442 6.7041,-0.9604 10.4217,-2.917 12.14091,-6.3904 l 0.6822,-1.3782 2.5e-4,1.1668 c 5.3e-4,2.4737 -1.47916,4.4563 -4.43258,5.9393 -2.10411,1.0565 -4.31652,1.6175 -10.76552,2.7296 -10.31519,1.7788 -15.19156,4.50777 -16.92635,9.47247 -0.78826,2.2559 -0.82498,3.4468 -0.2122,6.8822 0.0223,0.1246 0.47319,0.6694 1.00215,1.2105 2.19569,2.2461 5.93796,2.9587 10.91196,2.0777 4.00549,-0.7094 4.35723,-0.6782 2.97098,0.2638 -2.86274,1.9453 -8.65216,2.3107 -11.995,0.757 -1.91954,-0.8921 -4.17923,-2.9882 -4.44538,-4.1234 -0.52843,-2.2541 -8.66599,0.081 -15.01277,4.3073 -2.70535,1.8016 -3.98737,2.4624 -5.06405,2.6099 -0.7929,0.1087 -1.44073,0.2851 -1.43962,0.392 0.005,0.4597 2.70231,3.2899 3.96076,4.1558 1.78803,1.2301 5.5278,2.0374 10.28568,2.2201 0.26121,0.01 0.0511,0.2476 -0.4669,0.5279 -0.93697,0.507 -4.49933,0.841 -5.70743,0.535 z m 44.80347,-1.3685 c -3.645,-0.2091 -4.50325,-0.5233 -5.22117,-1.9115 -0.67519,-1.3057 -0.60706,-1.3871 0.48525,-0.5795 0.72284,0.5343 1.5136,0.7433 3.16632,0.8367 1.21158,0.069 2.20285,0 2.20285,-0.1552 0,-0.1537 -0.75381,-1.1026 -1.67513,-2.1085 -1.5908,-1.7368 -1.77577,-1.843 -3.67472,-2.1115 -1.09977,-0.1554 -2.06123,-0.3442 -2.13659,-0.4196 -0.21025,-0.2103 2.57381,-0.8515 3.69688,-0.8515 0.81365,0 1.38265,0.3957 3.1053,2.1597 1.16,1.1879 2.63543,2.5523 3.27876,3.0321 1.05456,0.7864 1.13523,0.9478 0.81989,1.6397 -0.19233,0.4223 -0.4337,0.7434 -0.53637,0.7137 -0.10267,-0.03 -1.68272,-0.1398 -3.51127,-0.2446 z m -41.32052,-2.4143 c -1.7415,-0.6151 -4.04338,-1.3369 -5.11529,-1.604 -1.8838,-0.4695 -2.59563,-1.1337 -2.0493,-1.9121 0.18283,-0.2606 3.99075,-1.496 7.78768,-2.5265 3.65309,-0.9914 8.05875,-0.2715 10.18123,1.6639 1.08345,0.9881 1.13469,1.0951 0.43612,0.9118 -4.98352,-1.308 -5.98748,-1.4765 -7.9158,-1.3285 -2.02307,0.1553 -6.33265,1.4053 -6.33265,1.8367 0,0.2239 1.673,0.9539 3.95789,1.7269 1.58654,0.5367 5.41822,1.1563 6.37508,1.031 1.08089,-0.1417 0.88462,0.4863 -0.28464,0.9106 -1.80869,0.6563 -3.71675,0.464 -7.04032,-0.7098 z m 60.00181,-3.7821 c 0,-0.089 0.27929,-1.1702 0.62064,-2.4019 0.92952,-3.3543 1.08748,-5.5336 0.56398,-7.781 -0.47428,-2.0362 -2.57257,-5.7381 -4.33227,-7.6432 -1.21945,-1.3203 -1.21629,-1.4706 0.0175,-0.8325 5.5545,2.8723 7.83703,11.8763 4.3774,17.2677 -0.92309,1.4385 -1.24731,1.8 -1.24731,1.3909 z m -12.09232,-6.4202 c -0.59614,-0.6598 -1.53145,-1.8502 -2.07846,-2.6453 -1.46776,-2.1333 -3.29106,-2.8224 -8.04825,-3.0415 -2.05964,-0.094 -3.74481,-0.2798 -3.74481,-0.4111 0,-0.4509 3.32756,-1.0526 5.50271,-0.995 4.58817,0.1216 6.33207,1.1997 8.42911,5.2106 l 1.42485,2.7253 1.32251,-1.4839 c 2.10224,-2.3589 3.11509,-4.6136 3.08472,-6.8667 -0.0141,-1.0449 -0.13972,-2.5054 -0.27918,-3.2455 -0.50619,-2.6867 1.22863,-1.1176 1.80561,1.6331 0.49811,2.3747 -0.21805,5.2912 -1.84278,7.5045 -2.3239,3.1659 -3.7913,3.591 -5.57603,1.6155 z m -17.34484,-2.3072 c -0.005,-0.2744 -0.35846,-0.8266 -0.78479,-1.2272 -0.42635,-0.4004 -0.86188,-1.123 -0.96785,-1.6055 -0.22482,-1.0235 0.50109,-2.9619 1.52066,-4.0604 0.95901,-1.0333 4.42981,-3.2562 6.66733,-4.2702 2.47169,-1.12007 5.22189,-3.18067 6.54453,-4.90367 1.13297,-1.4758 2.14038,-4.601 2.2129,-6.8649 l 0.0406,-1.2665 0.47726,1.2665 c 0.62676,1.6634 0.40152,4.6648 -0.47567,6.3383 -1.47523,2.8147 -3.78765,4.6973 -9.07364,7.38717 -3.31474,1.6869 -5.44845,3.3711 -6.24695,4.931 -0.43078,0.8416 -0.41875,1.0489 0.13308,2.2965 0.44504,1.0061 0.52081,1.5188 0.28442,1.9247 -0.27148,0.466 -0.32372,0.4746 -0.33185,0.054 z"
       id="path840"
       inkscape:connector-curvature="0" />
    <text
       inkscape:export-ydpi="96"
       inkscape:export-xdpi="96"
       id="text844"
       y="-782.95966"
       x="-476.77856"
       style="font-style:normal;font-weight:normal;font-size:16.44379807px;line-height:1.25;font-family:sans-serif;letter-spacing:0px;word-spacing:0px;fill:#000000;fill-opacity:1;stroke:none;stroke-width:0.41109493"
       xml:space="preserve"><tspan
         style="font-style:normal;font-variant:normal;font-weight:normal;font-stretch:normal;font-family:Vogue;-inkscape-font-specification:Vogue;fill:#000000;stroke-width:0.41109493"
         y="-782.95966"
         x="-476.77856"
         id="tspan842"
         sodipodi:role="line">trader</tspan></text>
  </g>
</svg>
